<svg width="491" height="241" viewBox="0 0 491 241" fill="none" xmlns="http://www.w3.org/2000/svg">
<g clip-path="url(#clip0_140_1034)">
<path d="M52.7612 213.553L65.2802 178.047C65.4804 177.548 65.617 177.025 65.6868 176.492L71.7454 130.205L84.3193 106.043H48.5699C48.5699 106.043 39.6943 119.11 40.6804 133.41C41.6181 147.006 46.3451 166.042 46.8077 171.611C46.845 172.06 46.5315 172.432 46.1254 172.626C37.4047 176.806 40.6805 213.671 40.6804 218.715C40.927 232.768 46.1052 231.535 49.5569 231.535C56.2137 231.535 49.207 222.413 52.7612 213.553Z" fill="#DD9E86"/>
<path d="M76.9978 170.399C70.7038 175.008 75.743 200.006 78.506 218.307C79.1179 222.36 81.1727 226.07 84.3645 228.641L86.5876 230.432C87.6722 231.306 89.023 231.782 90.4156 231.782H93.7127C94.8285 231.782 95.4075 230.452 94.6473 229.635C91.7374 226.51 90.5826 222.136 91.57 217.982L100.66 179.735C101.198 177.471 101.302 175.127 100.966 172.825L91.2221 106.043H69.2794C69.2794 114.786 67.9975 135.113 71.745 146.477L78.5911 167.236C78.9836 168.426 78.0088 169.658 76.9978 170.399Z" fill="#DD9E86"/>
<path d="M39.1037 204.174L40.3321 220.44H52.1809L56.9755 204.567C57.3323 203.386 56.4482 202.196 55.2144 202.196H40.9382C39.8676 202.196 39.0231 203.106 39.1037 204.174Z" fill="#ECA8FF"/>
<path d="M95.9136 204.249L94.0237 220.44H78.4642L75.3716 204.383C75.153 203.249 76.0225 202.196 77.178 202.196H94.0863C95.1869 202.196 96.0412 203.156 95.9136 204.249Z" fill="#ECA8FF"/>
<path d="M75.1966 106.043H89.9624C91.8111 106.043 93.3728 107.415 93.6111 109.248L98.3254 145.528C98.6115 147.73 96.8971 149.682 94.6767 149.682H72.8092L69.033 138.764L75.1966 106.043Z" fill="#B48CFF"/>
<path fill-rule="evenodd" clip-rule="evenodd" d="M81.8535 149.682H72.8093L71.2441 145.156L72.9306 140.506C74.6861 135.666 81.8535 136.926 81.8535 142.075V149.682Z" fill="#9F6DFE"/>
<path d="M38.8762 129.062L39.3319 126.138C40.3822 119.399 42.9051 112.974 46.721 107.321C47.2602 106.522 48.1611 106.043 49.125 106.043H86.7844L80.295 124.051C78.0541 130.27 76.5336 136.725 75.7634 143.29L75.2069 148.034C74.9894 149.887 73.4188 151.284 71.5526 151.284H42.2249C40.2573 151.284 38.6379 149.736 38.5492 147.771L38.2339 140.78C38.0571 136.863 38.2723 132.937 38.8762 129.062Z" fill="#B48CFF"/>
<path d="M75.4436 235.565C75.4436 231.738 75.841 227.922 76.6294 224.177L76.7536 223.587C77.6199 219.472 81.9535 217.1 85.8868 218.588L85.9877 218.626C86.7691 218.922 87.6206 218.406 87.7202 217.576L87.7394 217.416C88.0388 214.921 90.155 213.044 92.6675 213.044Cnan nan nan nan nan nanCnan nan nan nan 92.6675 213.044Cnan nan nan nan 92.6675 213.044L-nan -nanC-nan -nan -nan -nan -nan -nanC-nan -nan nan nan nan nanCnan nan nan nan nan nanLnan nanCnan nan nan nan nan nanCnan nan -nan -nan -nan -nanC-nan -nan -nan -nan -nan -nanL92.6675 213.044Cnan nan nan nan 92.6675 213.044Cnan nan nan nan nan nanCnan nan nan nan 97.436 216.63L-nan -nanC-nan -nan 97.6826 217.483 97.9867 218.536V218.536C98.9994 222.041 101.679 224.82 105.146 225.959L111.802 228.146C114.822 229.138 116.864 231.958 116.864 235.137V236.485C116.864 238.517 115.216 240.164 113.184 240.164H78.951C77.0139 240.164 75.4436 238.594 75.4436 236.657V235.565Z" fill="#F4B510"/>
<path d="M36.9819 229.809L38.0426 219.823C38.2066 218.279 40.1342 217.675 41.15 218.849Cnan nan nan nan nan nanCnan nan nan nan 41.15 218.849Cnan nan nan nan 41.15 218.849L-nan -nanC-nan -nan -nan -nan -nan -nanC-nan -nan nan nan nan nanCnan nan nan nan nan nanLnan nanCnan nan nan nan nan nanCnan nan -nan -nan -nan -nanC-nan -nan -nan -nan -nan -nanL41.15 218.849Cnan nan nan nan 41.15 218.849Cnan nan nan nan nan nanCnan nan nan nan 41.7167 218.81L-nan -nanC-nan -nan 42.1635 218.118 42.7147 217.264L43.5668 215.945C44.7346 214.136 46.7404 213.044 48.8932 213.044Cnan nan nan nan nan nanCnan nan nan nan 48.8932 213.044Cnan nan nan nan 48.8932 213.044L-nan -nanC-nan -nan -nan -nan -nan -nanC-nan -nan nan nan nan nanCnan nan nan nan nan nanLnan nanCnan nan nan nan nan nanCnan nan -nan -nan -nan -nanC-nan -nan -nan -nan -nan -nanL48.8932 213.044Cnan nan nan nan 48.8932 213.044Cnan nan nan nan nan nanCnan nan nan nan 54.9804 217.61L-nan -nanC-nan -nan 55.364 218.926 55.8372 220.549V220.549C56.5157 222.877 57.9419 224.917 59.8953 226.353L61.5958 227.604C63.4816 228.99 64.5952 231.191 64.5952 233.532V236.485C64.5952 238.517 62.9479 240.164 60.9158 240.164H40.6613C38.6293 240.164 36.9819 238.517 36.9819 236.485V229.809Z" fill="#F4B510"/>
<path d="M75.4436 235.234H113.412C114.229 235.234 114.891 235.896 114.891 236.713Cnan nan nan nan nan nanCnan nan nan nan 114.891 236.713Cnan nan nan nan 114.891 236.713L-nan -nanC-nan -nan -nan -nan -nan -nanC-nan -nan nan nan nan nanCnan nan nan nan nan nanLnan nanCnan nan nan nan nan nanCnan nan -nan -nan -nan -nanC-nan -nan -nan -nan -nan -nanL114.891 236.713Cnan nan nan nan 114.891 236.713Cnan nan nan nan nan nanCnan nan nan nan 113.412 238.192L-nan -nanC-nan -nan 112.588 238.192 111.572 238.192H75.4436V235.234Z" fill="#389810"/>
<path d="M36.9819 235.234H44.8714C45.6884 235.234 46.3507 235.896 46.3507 236.713Cnan nan nan nan nan nanCnan nan nan nan 46.3507 236.713Cnan nan nan nan 46.3507 236.713L-nan -nanC-nan -nan -nan -nan -nan -nanC-nan -nan nan nan nan nanCnan nan nan nan nan nanLnan nanCnan nan nan nan nan nanCnan nan -nan -nan -nan -nanC-nan -nan -nan -nan -nan -nanL46.3507 236.713Cnan nan nan nan 46.3507 236.713Cnan nan nan nan nan nanCnan nan nan nan 44.8714 238.192L-nan -nanC-nan -nan 44.0478 238.192 43.0317 238.192H36.9819V235.234Z" fill="#389810"/>
<path fill-rule="evenodd" clip-rule="evenodd" d="M96.8691 225.945L101.377 222.987L101.919 223.811L100.576 224.693L102.901 223.917L103.424 224.715L100.324 228.166L99.5905 227.507L101.445 225.442L97.2956 226.825L96.8691 225.945Z" fill="#E379F8"/>
<path fill-rule="evenodd" clip-rule="evenodd" d="M47.4736 224.891L56.1028 222.918L56.3225 223.88L51.9537 224.878H57.4454L57.5855 225.844L50.9287 227.817L50.6485 226.871L54.0455 225.865H47.5835L47.4736 224.891Z" fill="#E379F8"/>
</g>
<path d="M111.487 57.1498C112.83 54.9003 113.215 52.1676 112.33 49.6981L111.481 47.3291C111.295 46.8116 111.244 46.2549 111.332 45.712L112.333 39.5488C112.441 38.8858 112.751 38.2732 113.221 37.7962L115.696 35.2838C116.287 34.6835 117.304 34.9717 117.498 35.7944L117.657 36.4717C117.853 37.3056 117.712 38.1835 117.265 38.9125L116.64 39.9307C116.544 40.0862 116.472 40.2549 116.425 40.4315L116.333 40.7785C116.117 41.5887 116.595 42.4216 117.4 42.6389C118.064 42.8179 118.764 42.5236 119.103 41.9228L121.271 38.0854C121.532 37.6225 121.676 37.1017 121.689 36.5693L121.842 30.3489C121.856 29.7846 122.297 29.3252 122.857 29.2915C123.282 29.2658 123.683 29.4942 123.88 29.8744L125.304 32.6244C125.479 32.9631 125.714 33.2667 125.998 33.5201C126.586 34.044 126.954 34.772 127.03 35.5579L127.063 35.8981C127.109 36.3705 127.301 36.8166 127.613 37.1732L127.86 37.4558C128.202 37.8478 128.327 38.3859 128.193 38.8898L128.166 38.9933C128.057 39.4026 128.146 39.8396 128.406 40.1729C128.666 40.5062 128.755 40.9433 128.646 41.3525L128.131 43.2862C128.037 43.6391 127.863 43.9652 127.622 44.2385C127.342 44.556 127.153 44.9458 127.074 45.3627C126.258 49.6838 124.995 53.93 123.312 57.989C105.343 106.417 92.7507 88.5219 111.487 57.1498Z" fill="#DD9E86"/>
<path d="M116.437 37.3789C116.042 37.9713 115.402 38.2379 115.007 37.9744C114.612 37.7109 114.612 37.017 115.007 36.4247C115.403 35.8323 116.043 35.5657 116.438 35.8292C116.833 36.0927 116.833 36.7865 116.437 37.3789Z" fill="#FAC798"/>
<path d="M85.5696 86.5821L97.4309 100.084C100.715 103.823 106.53 103.645 109.228 99.4639C111.517 95.9191 114.143 91.4387 116.325 86.6137C120.434 77.5311 122.798 65.4826 123.558 61.1663C123.724 60.2221 123.177 59.3104 122.274 58.9893L113.368 55.8226C112.446 55.4947 111.421 55.8826 110.948 56.7393L103.746 69.7634C102.036 72.8566 97.4479 72.3739 96.4188 68.9925Cnan nan nan nan 96.4188 68.9925Lnan nanCnan nan nan nan nan nanLnan nanCnan nan nan nan nan nanL96.4188 68.9925Cnan nan nan nan 92.0085 66.0434V66.0434C83.2433 68.1245 79.0956 79.2125 85.5696 86.5821Z" fill="#F97600"/>
<path fill-rule="evenodd" clip-rule="evenodd" d="M93.9816 65.738C98.0956 71.3837 100.511 78.3299 100.511 85.8096C100.511 89.1627 102.435 95.6728 104.866 102.563C102.29 103.163 99.404 102.33 97.4308 100.084L85.5695 86.5822C78.6269 78.6793 83.8991 66.5003 93.9816 65.738Z" fill="#DE5000"/>
<path d="M62.7192 55.2542H79.069L99.1713 110.468H53.0701L55.4319 102.16L62.7192 55.2542Z" fill="#DD9E86"/>
<path d="M95.2418 63.7998C96.4793 68.0088 97.7133 73.0812 97.8311 78.3048C97.9522 83.6741 97.5591 88.9352 96.9979 93.8506C99.6487 98.3438 100.767 103.195 101.239 106.489C101.552 108.676 99.7918 110.468 97.5826 110.468H53.0519C50.8428 110.468 49.0415 108.672 49.3149 106.48C50.1284 99.956 52.533 93.8506 52.533 93.8506L52.533 55.2541L56.9553 54.5955C60.6245 54.0491 64.0924 58.325 66.5183 61.1314Cnan nan nan nan 66.5183 61.1314Lnan nanCnan nan nan nan nan nanLnan nanCnan nan nan nan nan nanLnan nanCnan nan nan nan 66.5183 61.1314L76.0603 72.1702C76.5738 72.7642 77.5348 72.5977 77.8186 71.8657C79.8024 66.748 79.4426 61.0178 76.8344 56.1884L75.3165 53.3779C80.4807 53.3779 93.7852 58.8454 95.2418 63.7998Z" fill="#F97600"/>
<path fill-rule="evenodd" clip-rule="evenodd" d="M50.9258 98.7607C51.7496 95.8398 52.533 93.8505 52.533 93.8505L52.5331 66.8413C54.0667 67.4775 55.4882 69.016 56.6116 71.3002C58.1195 74.3664 58.9667 78.525 58.9667 82.8613C58.9667 87.1975 58.1195 91.3562 56.6116 94.4224C55.1036 97.4886 53.0584 99.2112 50.9258 99.2112L50.9258 98.7607Z" fill="#DE5000"/>
<path d="M32.3108 95.8789L45.3291 60.2955C46.4368 57.2677 49.3176 55.2542 52.5416 55.2542C58.2254 55.2542 61.9551 61.2161 59.5012 66.3429C55.2401 75.2453 49.3667 87.7308 45.4591 96.9115C44.901 98.2225 45.4494 99.7167 46.5891 100.572C58.0622 109.18 65.1918 133.745 66.2036 137.54C67.1641 141.141 70.4906 149.69 71.1732 151.432C71.2559 151.643 71.3005 151.861 71.3089 152.087L71.5399 158.326C71.5552 158.737 71.3679 159.129 71.0388 159.376C70.2938 159.935 69.2211 159.516 69.0516 158.601L68.1456 153.708C68.1021 153.474 68.0169 153.248 67.894 153.044L66.2881 150.367C66.0014 149.889 65.2662 150.168 65.3677 150.715L66.1349 154.858C66.1803 155.104 66.1795 155.355 66.1323 155.6L64.9984 161.497C64.9151 161.93 64.6043 162.285 64.1855 162.424C63.3598 162.7 62.5194 162.047 62.5815 161.179L62.9611 155.865C62.9784 155.622 62.9513 155.378 62.8812 155.145L61.9933 152.197C61.8333 151.666 61.0559 151.752 61.0159 152.305L60.8774 154.218C60.8548 154.531 60.759 154.834 60.5976 155.102L57.2906 160.614C57.0111 161.08 56.4648 161.315 55.9345 161.197C55.15 161.023 54.726 160.169 55.0608 159.439L57.2122 154.745C57.3089 154.534 57.3636 154.306 57.3732 154.074L57.4195 152.964C57.4384 152.512 56.7803 152.436 56.6956 152.881C56.6071 153.345 56.2991 153.738 55.869 153.936L51.423 155.973C50.7467 156.283 49.9551 155.903 49.7746 155.181C49.6599 154.722 49.8282 154.239 50.2031 153.951L52.3698 152.284C52.8159 151.941 53.0968 151.426 53.1435 150.865L53.3051 148.925C53.3263 148.671 53.2492 148.418 53.0895 148.218C51.3221 146.009 51.1876 142.91 52.757 140.556L52.8021 140.488L32.7434 102.352C31.6916 100.352 31.5345 98.0007 32.3108 95.8789Z" fill="#DD9E86"/>
<path d="M71.296 158.178C71.296 158.77 70.936 159.25 70.4919 159.25C70.0479 159.25 69.6879 158.77 69.6879 158.178C69.6879 157.586 70.0479 157.106 70.4919 157.106C70.936 157.106 71.296 157.586 71.296 158.178Z" fill="#FAC798"/>
<path d="M64.8633 160.858C64.8633 161.45 64.5033 161.93 64.0592 161.93C63.6151 161.93 63.2551 161.45 63.2551 160.858C63.2551 160.266 63.6151 159.786 64.0592 159.786C64.5033 159.786 64.8633 160.266 64.8633 160.858Z" fill="#FAC798"/>
<path d="M57.1915 160.212C56.9206 160.755 56.4158 161.005 56.0639 160.77C55.712 160.534 55.6463 159.903 55.9172 159.36C56.1881 158.817 56.6929 158.567 57.0448 158.802C57.3967 159.038 57.4624 159.669 57.1915 160.212Z" fill="#FAC798"/>
<path d="M51.6138 155.423C51.0278 155.61 50.4846 155.435 50.4006 155.032C50.3166 154.629 50.7237 154.151 51.3097 153.964C51.8958 153.777 52.4389 153.952 52.5229 154.355C52.6069 154.758 52.1999 155.236 51.6138 155.423Z" fill="#FAC798"/>
<path d="M32.236 96.0831L45.3291 60.2955C46.4368 57.2677 49.3176 55.2542 52.5415 55.2542C58.2253 55.2542 61.9551 61.2161 59.5012 66.3429C55.2401 75.2453 49.3667 87.7308 45.4591 96.9115C44.901 98.2225 45.448 99.7171 46.5905 100.569C56.9419 108.283 64.6836 129.03 66.9601 136.134C67.3019 137.201 66.6508 138.295 65.5634 138.563L52.7864 141.704C51.8605 141.932 50.9026 141.475 50.4979 140.611L32.5054 102.227C31.6005 100.297 31.5036 98.0852 32.236 96.0831Z" fill="#F97600"/>
<path d="M58.6782 54.2679C58.6782 54.8126 58.2367 55.2541 57.692 55.2541C57.1473 55.2541 56.7058 54.8126 56.7058 54.2679C56.7058 53.7233 57.1473 53.2817 57.692 53.2817C58.2367 53.2817 58.6782 53.7233 58.6782 54.2679Z" fill="#DE5000"/>
<path d="M58.185 56.2403C58.185 56.785 57.7435 57.2265 57.1988 57.2265C56.6542 57.2265 56.2126 56.785 56.2126 56.2403C56.2126 55.6957 56.6542 55.2542 57.1988 55.2542C57.7435 55.2542 58.185 55.6957 58.185 56.2403Z" fill="#389810"/>
<path d="M57.6919 58.2128C57.6919 58.7574 57.2503 59.1989 56.7057 59.1989C56.161 59.1989 55.7195 58.7574 55.7195 58.2128C55.7195 57.6681 56.161 57.2266 56.7057 57.2266C57.2503 57.2266 57.6919 57.6681 57.6919 58.2128Z" fill="#FFB3DA"/>
<path d="M57.6919 60.1852C57.6919 60.7298 57.2503 61.1714 56.7057 61.1714C56.161 61.1714 55.7195 60.7298 55.7195 60.1852C55.7195 59.6405 56.161 59.199 56.7057 59.199C57.2503 59.199 57.6919 59.6405 57.6919 60.1852Z" fill="#FECE00"/>
<path d="M57.6919 62.1573C57.6919 62.702 57.2503 63.1435 56.7057 63.1435C56.161 63.1435 55.7195 62.702 55.7195 62.1573C55.7195 61.6127 56.161 61.1711 56.7057 61.1711C57.2503 61.1711 57.6919 61.6127 57.6919 62.1573Z" fill="#FECE00"/>
<path d="M57.6919 64.1297C57.6919 64.6744 57.2503 65.1159 56.7057 65.1159C56.161 65.1159 55.7195 64.6744 55.7195 64.1297C55.7195 63.5851 56.161 63.1436 56.7057 63.1436C57.2503 63.1436 57.6919 63.5851 57.6919 64.1297Z" fill="#FECE00"/>
<path d="M59.1714 71.0331C59.1714 71.5777 58.7298 72.0193 58.1852 72.0193C57.6405 72.0193 57.199 71.5777 57.199 71.0331C57.199 70.4884 57.6405 70.0469 58.1852 70.0469C58.7298 70.0469 59.1714 70.4884 59.1714 71.0331Z" fill="#6CBBD7"/>
<path d="M59.6645 73.9916C59.6645 74.5362 59.223 74.9777 58.6783 74.9777C58.1337 74.9777 57.6921 74.5362 57.6921 73.9916C57.6921 73.4469 58.1337 73.0054 58.6783 73.0054C59.223 73.0054 59.6645 73.4469 59.6645 73.9916Z" fill="#F23116"/>
<path d="M62.623 80.8949C62.623 81.4395 62.1815 81.8811 61.6368 81.8811C61.0922 81.8811 60.6506 81.4395 60.6506 80.8949C60.6506 80.3502 61.0922 79.9087 61.6368 79.9087C62.1815 79.9087 62.623 80.3502 62.623 80.8949Z" fill="#FFB3DA"/>
<path d="M64.1025 82.3741C64.1025 82.9188 63.661 83.3603 63.1163 83.3603C62.5717 83.3603 62.1301 82.9188 62.1301 82.3741C62.1301 81.8295 62.5717 81.3879 63.1163 81.3879C63.661 81.3879 64.1025 81.8295 64.1025 82.3741Z" fill="#FECE00"/>
<path d="M66.0747 84.5932C66.0747 85.0016 65.7436 85.3328 65.3351 85.3328C64.9266 85.3328 64.5955 85.0016 64.5955 84.5932C64.5955 84.1847 64.9266 83.8535 65.3351 83.8535C65.7436 83.8535 66.0747 84.1847 66.0747 84.5932Z" fill="#389810"/>
<path d="M68.0468 85.3329C68.0468 85.8775 67.6053 86.3191 67.0607 86.3191C66.516 86.3191 66.0745 85.8775 66.0745 85.3329C66.0745 84.7882 66.516 84.3467 67.0607 84.3467C67.6053 84.3467 68.0468 84.7882 68.0468 85.3329Z" fill="#FECE00"/>
<path d="M70.0195 85.3329C70.0195 85.8775 69.578 86.3191 69.0333 86.3191C68.4887 86.3191 68.0471 85.8775 68.0471 85.3329C68.0471 84.7882 68.4887 84.3467 69.0333 84.3467C69.578 84.3467 70.0195 84.7882 70.0195 85.3329Z" fill="#6CBBD7"/>
<path d="M71.9917 85.3329C71.9917 85.8775 71.5501 86.3191 71.0055 86.3191C70.4608 86.3191 70.0193 85.8775 70.0193 85.3329C70.0193 84.7882 70.4608 84.3467 71.0055 84.3467C71.5501 84.3467 71.9917 84.7882 71.9917 85.3329Z" fill="#FFB3DA"/>
<path d="M73.4712 85.0863C73.4712 85.4948 73.1401 85.826 72.7316 85.826C72.3231 85.826 71.9919 85.4948 71.9919 85.0863C71.9919 84.6778 72.3231 84.3467 72.7316 84.3467C73.1401 84.3467 73.4712 84.6778 73.4712 85.0863Z" fill="#F23116"/>
<path d="M79.3881 80.402C79.3881 80.9466 78.9466 81.3881 78.402 81.3881C77.8573 81.3881 77.4158 80.9466 77.4158 80.402C77.4158 79.8573 77.8573 79.4158 78.402 79.4158C78.9466 79.4158 79.3881 79.8573 79.3881 80.402Z" fill="#6CBBD7"/>
<path d="M79.8813 78.4295C79.8813 78.9742 79.4398 79.4157 78.8951 79.4157C78.3505 79.4157 77.9089 78.9742 77.9089 78.4295C77.9089 77.8849 78.3505 77.4434 78.8951 77.4434C79.4398 77.4434 79.8813 77.8849 79.8813 78.4295Z" fill="#F23116"/>
<path d="M80.3745 76.4571C80.3745 77.0018 79.9329 77.4433 79.3883 77.4433C78.8436 77.4433 78.4021 77.0018 78.4021 76.4571C78.4021 75.9125 78.8436 75.4709 79.3883 75.4709C79.9329 75.4709 80.3745 75.9125 80.3745 76.4571Z" fill="#FECE00"/>
<path d="M80.3745 69.5538C80.3745 70.0985 79.9329 70.54 79.3883 70.54C78.8436 70.54 78.4021 70.0985 78.4021 69.5538C78.4021 69.0092 78.8436 68.5676 79.3883 68.5676C79.9329 68.5676 80.3745 69.0092 80.3745 69.5538Z" fill="#1570FF"/>
<path d="M78.4018 60.6781C78.4018 61.2227 77.9603 61.6643 77.4156 61.6643C76.871 61.6643 76.4294 61.2227 76.4294 60.6781C76.4294 60.1334 76.871 59.6919 77.4156 59.6919C77.9603 59.6919 78.4018 60.1334 78.4018 60.6781Z" fill="#6CBBD7"/>
<path d="M77.9087 58.7057C77.9087 59.2503 77.4671 59.6919 76.9225 59.6919C76.3778 59.6919 75.9363 59.2503 75.9363 58.7057C75.9363 58.161 76.3778 57.7195 76.9225 57.7195C77.4671 57.7195 77.9087 58.161 77.9087 58.7057Z" fill="#FECE00"/>
<path d="M76.9228 56.7335C76.9228 57.2782 76.4813 57.7197 75.9366 57.7197C75.392 57.7197 74.9504 57.2782 74.9504 56.7335C74.9504 56.1888 75.392 55.7473 75.9366 55.7473C76.4813 55.7473 76.9228 56.1888 76.9228 56.7335Z" fill="#FECE00"/>
<path d="M75.9365 54.7611C75.9365 55.3057 75.495 55.7473 74.9503 55.7473C74.4056 55.7473 73.9641 55.3057 73.9641 54.7611C73.9641 54.2164 74.4056 53.7749 74.9503 53.7749C75.495 53.7749 75.9365 54.2164 75.9365 54.7611Z" fill="#389810"/>
<path d="M77.4157 83.8535C77.4157 84.9428 76.5326 85.8259 75.4433 85.8259C74.354 85.8259 73.4709 84.9428 73.4709 83.8535C73.4709 82.7642 74.354 81.8811 75.4433 81.8811C76.5326 81.8811 77.4157 82.7642 77.4157 83.8535Z" fill="#FECE00"/>
<path d="M59.6642 68.0744C59.6642 69.1637 58.7812 70.0468 57.6919 70.0468C56.6025 70.0468 55.7195 69.1637 55.7195 68.0744C55.7195 66.9851 56.6025 66.1021 57.6919 66.1021C58.7812 66.1021 59.6642 66.9851 59.6642 68.0744Z" fill="#389810"/>
<path d="M81.3605 72.5124C81.3605 73.6017 80.4775 74.4848 79.3881 74.4848C78.2988 74.4848 77.4158 73.6017 77.4158 72.5124C77.4158 71.4231 78.2988 70.54 79.3881 70.54C80.4775 70.54 81.3605 71.4231 81.3605 72.5124Z" fill="#FFB3DA"/>
<path d="M80.2607 65.1496C80.624 66.7635 80.0862 68.2776 79.0596 68.5314C78.033 68.7852 76.9062 67.6827 76.5429 66.0688C76.1796 64.4549 76.7174 62.9408 77.744 62.687C78.7707 62.4332 79.8974 63.5357 80.2607 65.1496Z" fill="#F23116"/>
<path d="M61.6012 77.3184C61.8832 78.7894 61.2446 80.1482 60.1748 80.3533C59.105 80.5584 58.009 79.5322 57.727 78.0612C57.445 76.5902 58.0836 75.2314 59.1534 75.0263C60.2232 74.8212 61.3191 75.8474 61.6012 77.3184Z" fill="#6CBBD7"/>
<path d="M58.678 65.6091C58.678 65.8814 58.0158 66.1022 57.1988 66.1022C56.3818 66.1022 55.7195 65.8814 55.7195 65.6091C55.7195 65.3367 56.3818 65.116 57.1988 65.116C58.0158 65.116 58.678 65.3367 58.678 65.6091Z" fill="#1570FF"/>
<path d="M60.1507 72.1908C60.2285 72.3972 59.6322 72.7085 58.819 72.8862C58.0058 73.0638 57.2835 73.0404 57.2058 72.834C57.128 72.6276 57.7243 72.3162 58.5375 72.1386C59.3507 71.961 60.073 71.9844 60.1507 72.1908Z" fill="#FFB3DA"/>
<path d="M80.8675 74.978C80.8675 75.2503 80.2052 75.4711 79.3882 75.4711C78.5712 75.4711 77.9089 75.2503 77.9089 74.978C77.9089 74.7056 78.5712 74.4849 79.3882 74.4849C80.2052 74.4849 80.8675 74.7056 80.8675 74.978Z" fill="#389810"/>
<path d="M79.388 62.1574C79.388 62.4297 78.7257 62.6505 77.9087 62.6505C77.0917 62.6505 76.4294 62.4297 76.4294 62.1574C76.4294 61.8851 77.0917 61.6643 77.9087 61.6643C78.7257 61.6643 79.388 61.8851 79.388 62.1574Z" fill="#FFB3DA"/>
<path d="M65.5051 82.4506C65.7634 82.7088 65.3446 83.5464 64.5697 84.3212C63.7949 85.0961 62.9574 85.5148 62.6991 85.2565C62.4408 84.9983 62.8596 84.1607 63.6344 83.3859C64.4093 82.611 65.2468 82.1923 65.5051 82.4506Z" fill="#6CBBD7"/>
<path d="M76.013 80.4781C75.7547 80.7364 76.1735 81.574 76.9483 82.3488C77.7232 83.1237 78.5607 83.5424 78.819 83.2841C79.0773 83.0258 78.6585 82.1883 77.8836 81.4135C77.1088 80.6386 76.2713 80.2199 76.013 80.4781Z" fill="#389810"/>
<path fill-rule="evenodd" clip-rule="evenodd" d="M63.3624 3.47925C58.5967 3.47925 54.7333 7.34265 54.7333 12.1084C54.7333 13.3458 54.9937 14.5223 55.4628 15.5862C55.7907 16.3301 55.2973 17.2859 54.4843 17.2859H54.2402C44.4363 17.2859 36.4888 25.2334 36.4888 35.0373V37.5027C36.4888 47.3066 44.4363 55.2541 54.2402 55.2541H80.8672C90.6711 55.2541 98.6186 47.3066 98.6186 37.5027V35.0373C98.6186 25.2335 90.6711 17.2859 80.8672 17.2859V17.2859C80.1568 17.2859 79.7287 16.454 80.034 15.8125C80.5682 14.6901 80.8672 13.4342 80.8672 12.1084C80.8672 7.34265 77.0038 3.47925 72.2381 3.47925H63.3624Z" fill="#A6735B"/>
<path fill-rule="evenodd" clip-rule="evenodd" d="M80.864 50.0156C81.4557 49.128 81.8538 47.845 81.8538 46.3786C81.8538 44.9121 81.4557 43.6291 80.864 42.7416C80.2677 41.8471 79.5522 41.4476 78.8952 41.4476C78.2382 41.4476 77.5227 41.8471 76.9264 42.7416C76.3347 43.6291 75.9366 44.9121 75.9366 46.3786C75.9366 47.845 76.3347 49.128 76.9264 50.0156C77.5227 50.91 78.2382 51.3095 78.8952 51.3095C79.5522 51.3095 80.2677 50.91 80.864 50.0156ZM78.8952 52.2957C81.0738 52.2957 82.8399 49.6465 82.8399 46.3786C82.8399 43.1106 81.0738 40.4614 78.8952 40.4614C76.7166 40.4614 74.9504 43.1106 74.9504 46.3786C74.9504 49.6465 76.7166 52.2957 78.8952 52.2957Z" fill="#F4B510"/>
<path fill-rule="evenodd" clip-rule="evenodd" d="M61.4246 31.5858H62.6231C65.9224 31.5858 68.9467 29.8996 70.6967 27.1934C72.2105 29.8707 75.0694 31.5858 78.2291 31.5858H78.7239C79.0211 32.2902 79.227 33.0632 79.3243 33.9048C79.4107 34.6515 79.5027 35.4031 79.787 36.0989C80.0915 36.844 80.3745 37.5364 80.3745 38.4891C80.3745 40.9583 79.7569 43.2579 78.6645 45.1862C78.3257 45.7842 78.0107 46.4072 77.6947 47.0324L77.6947 47.0324C77.1179 48.1734 76.5375 49.3216 75.802 50.3377C74.727 51.8227 72.9791 52.7888 71.0057 52.7888C70.7732 52.7888 70.5439 52.7754 70.3185 52.7493L71.514 57.2C72.2525 59.9494 70.181 62.6507 67.3342 62.6507C62.5537 62.6507 58.6783 58.7753 58.6783 53.9948V43.4732C58.5994 43.2835 58.5248 43.0913 58.4548 42.8967C58.1551 42.0643 57.4016 41.4477 56.5168 41.4477C55.2596 41.4477 54.2405 40.4285 54.2405 39.1713C54.2405 36.837 57.3351 36.0152 58.4932 38.0419C58.5102 38.0715 58.5505 38.077 58.5738 38.052C59.1409 37.442 59.578 36.2514 60.0923 34.8503C60.4682 33.8264 60.8853 32.69 61.4246 31.5858Z" fill="#DD9E86"/>
<path fill-rule="evenodd" clip-rule="evenodd" d="M58.1814 50.0156C58.7731 49.128 59.1711 47.845 59.1711 46.3786C59.1711 44.9121 58.7731 43.6291 58.1814 42.7416C57.5851 41.8471 56.8696 41.4476 56.2126 41.4476C55.5556 41.4476 54.8401 41.8471 54.2438 42.7416C53.6521 43.6291 53.254 44.9121 53.254 46.3786C53.254 47.845 53.6521 49.128 54.2438 50.0156C54.8401 50.91 55.5556 51.3095 56.2126 51.3095C56.8696 51.3095 57.5851 50.91 58.1814 50.0156ZM56.2126 52.2957C58.3912 52.2957 60.1573 49.6465 60.1573 46.3786C60.1573 43.1106 58.3912 40.4614 56.2126 40.4614C54.0339 40.4614 52.2678 43.1106 52.2678 46.3786C52.2678 49.6465 54.0339 52.2957 56.2126 52.2957Z" fill="#F4B510"/>
<path fill-rule="evenodd" clip-rule="evenodd" d="M71.3551 38.0123L71.0105 35.6002L71.9868 35.4607L72.3314 37.8729C72.421 38.5005 72.6248 39.1063 72.9327 39.6605L73.6909 41.0253C74.4107 42.3209 73.4738 43.913 71.9917 43.913V42.9268C72.7219 42.9268 73.1834 42.1425 72.8288 41.5042L72.0706 40.1394C71.7043 39.48 71.4618 38.7591 71.3551 38.0123Z" fill="#1A2027"/>
<path fill-rule="evenodd" clip-rule="evenodd" d="M73.9643 41.9406C74.2366 41.9406 74.4574 41.7198 74.4574 41.4475L75.4436 41.4475C75.4436 42.2645 74.7813 42.9268 73.9643 42.9268L73.4712 42.9268L73.4712 41.9406L73.9643 41.9406Z" fill="#1A2027"/>
<path fill-rule="evenodd" clip-rule="evenodd" d="M70.5127 41.9406C70.2404 41.9406 70.0196 41.7198 70.0196 41.4475L69.0334 41.4475C69.0334 42.2645 69.6957 42.9268 70.5127 42.9268L70.5127 41.9406Z" fill="#1A2027"/>
<path d="M74.4554 45.9258C74.4159 45.565 72.7876 45.4407 72.3845 46.3059C71.9098 45.4407 69.2247 45.049 68.0476 45.7641C69.4336 47.0362 69.2765 48.3511 72.1732 48.3511C73.2964 48.3511 73.7727 47.2709 73.8914 46.6778C74.0438 46.5239 74.4948 46.2865 74.4554 45.9258Z" fill="#C61800"/>
<path fill-rule="evenodd" clip-rule="evenodd" d="M66.5679 33.5581C67.4399 33.5581 68.2891 33.9612 68.92 34.7228L68.1606 35.352C67.7022 34.7986 67.1237 34.5443 66.5679 34.5443C66.0121 34.5443 65.4337 34.7986 64.9753 35.352L64.2158 34.7228C64.8467 33.9612 65.696 33.5581 66.5679 33.5581Z" fill="#1A2027"/>
<path d="M68.5407 36.5167C67.4514 35.2018 65.6853 35.2018 64.5959 36.5167C66.1738 38.2918 67.8832 37.2563 68.5407 36.5167Z" fill="white"/>
<path d="M78.4025 36.5167C77.3132 35.2018 75.5471 35.2018 74.4578 36.5167C76.0357 38.2918 77.7451 37.2563 78.4025 36.5167Z" fill="white"/>
<path fill-rule="evenodd" clip-rule="evenodd" d="M76.43 33.5581C77.3019 33.5581 78.1512 33.9612 78.7821 34.7228L78.0226 35.352C77.5642 34.7986 76.9858 34.5443 76.43 34.5443C75.8742 34.5443 75.2957 34.7986 74.8373 35.352L74.0779 34.7228C74.7088 33.9612 75.558 33.5581 76.43 33.5581Z" fill="#1A2027"/>
<path fill-rule="evenodd" clip-rule="evenodd" d="M74.6414 37.6118C75.6388 36.8091 77.2207 36.8091 78.2182 37.6118L77.5999 38.3801C76.9634 37.8679 75.8961 37.8679 75.2596 38.3801L74.6414 37.6118Z" fill="#1A2027"/>
<path fill-rule="evenodd" clip-rule="evenodd" d="M64.7795 37.6118C65.777 36.8091 67.3589 36.8091 68.3564 37.6118L67.7381 38.3801C67.1016 37.8679 66.0343 37.8679 65.3978 38.3801L64.7795 37.6118Z" fill="#1A2027"/>
<path d="M67.5542 36.5167C67.5542 37.0614 67.1126 37.5029 66.568 37.5029C66.0233 37.5029 65.5818 37.0614 65.5818 36.5167C65.5818 35.972 66.0233 35.5305 66.568 35.5305C67.1126 35.5305 67.5542 35.972 67.5542 36.5167Z" fill="#1A2027"/>
<path d="M77.416 36.5167C77.416 37.0614 76.9744 37.5029 76.4298 37.5029C75.8851 37.5029 75.4436 37.0614 75.4436 36.5167C75.4436 35.972 75.8851 35.5305 76.4298 35.5305C76.9744 35.5305 77.416 35.972 77.416 36.5167Z" fill="#1A2027"/>
<g clip-path="url(#clip1_140_1034)">
<path d="M439.589 218.715L428.987 180.007L418.879 130.205L406.305 106.043H442.054C442.054 106.043 450.93 119.11 449.944 133.41C449.037 146.556 446.255 167.705 445.812 174.402C445.757 175.24 446.351 175.932 447.033 176.422C454.861 182.061 449.944 218.715 449.944 218.715H439.589Z" fill="#B6704F"/>
<path d="M387.579 168.205C387.633 164.046 387.925 151.839 389.54 143.765C391.513 133.903 399.402 106.043 399.402 106.043H421.345C421.345 114.786 420.408 135.113 416.66 146.477L409.814 167.236C409.422 168.426 410.355 169.636 411.499 170.149C421.154 174.477 413.529 206.059 411.236 224.632H401.128L387.916 171.063C387.685 170.126 387.567 169.17 387.579 168.205Z" fill="#B6704F"/>
<path d="M392.926 228.903L394.25 227.72V227.72C399.286 223.219 404.519 215.51 411.272 215.51H413.354L413.203 216.622C412.677 220.485 414.358 224.299 415.294 228.084C416.536 233.108 414.518 238.352 412.371 240.164H405.486L405.978 236.429L401.245 239.555C400.644 239.953 399.939 240.164 399.217 240.164H378.97C377.836 240.164 377.013 239.087 377.311 237.993C378.156 234.891 380.661 232.519 383.805 231.846L389.564 230.612C390.814 230.344 391.973 229.755 392.926 228.903Z" fill="#F23116"/>
<path d="M452.536 213.044V213.044C443.82 213.044 435.966 220.063 435.406 228.76C435.229 231.507 435.239 234.24 435.68 236.941C435.886 238.197 436.223 239.313 436.755 240.164H454.832C456.55 235.777 450.059 224.22 450.059 222.678C450.059 220.798 452.536 213.044 452.536 213.044Z" fill="#F23116"/>
<path d="M415.416 218.899C416.333 212.824 419.619 190.465 419.619 181.979C419.619 164.322 417.441 173.914 423.81 154.366L419.619 106.043H401.109C399.077 106.043 397.43 107.69 397.43 109.722V111.92C397.43 112.592 397.244 113.247 396.909 113.829C390.767 124.51 386.335 141.74 386.335 163.488C386.335 192.401 393.033 214.059 394.792 219.248C395.038 219.974 395.719 220.441 396.486 220.441H413.605C414.512 220.441 415.281 219.796 415.416 218.899Z" fill="#1570FF"/>
<path fill-rule="evenodd" clip-rule="evenodd" d="M419.593 178.784C419.492 172.908 419.144 171.016 419.298 169.166C419.493 166.826 420.491 164.553 423.81 154.366L423.222 147.583C421.703 140.067 419.87 132.613 418.14 126.753C413.537 135.875 405.96 162.749 419.372 178.528C419.446 178.615 419.52 178.7 419.593 178.784Z" fill="#105ACD"/>
<path d="M454.67 218.995C455.985 212.109 461.153 181.585 456.6 148.203C454.904 135.76 453.387 121.654 447.431 112.703C446.996 112.049 446.739 111.29 446.739 110.505V109.722C446.739 107.69 445.091 106.043 443.059 106.043H414.412C413.356 106.043 412.518 106.916 412.585 107.969C413.111 116.195 415.46 148.602 420.605 162.749C426.522 179.021 431.946 198.498 431.946 198.498L433.538 218.745C433.614 219.703 434.41 220.441 435.37 220.441H452.899C453.765 220.441 454.508 219.846 454.67 218.995Z" fill="#1570FF"/>
</g>
<path d="M388.074 60.9428C386.838 58.8735 386.484 56.3599 387.298 54.0883L388.079 51.9093C388.25 51.4332 388.297 50.9211 388.216 50.4217L387.295 44.7525C387.196 44.1427 386.911 43.5792 386.478 43.1404L384.202 40.8294C383.658 40.2772 382.722 40.5423 382.544 41.2991L382.398 41.9221C382.218 42.6891 382.348 43.4967 382.759 44.1672L383.334 45.1039C383.422 45.2469 383.488 45.4021 383.531 45.5645L383.616 45.8837C383.815 46.629 383.375 47.3951 382.634 47.5949C382.024 47.7596 381.38 47.4889 381.068 46.9362L379.074 43.4064C378.833 42.9806 378.701 42.5015 378.689 42.0118L378.548 36.29C378.535 35.771 378.13 35.3484 377.615 35.3174C377.224 35.2938 376.855 35.5038 376.674 35.8536L375.364 38.3832C375.203 38.6947 374.986 38.9739 374.725 39.207C374.185 39.689 373.846 40.3586 373.776 41.0815L373.746 41.3944C373.704 41.829 373.527 42.2393 373.24 42.5673L373.013 42.8273C372.698 43.1878 372.583 43.6828 372.706 44.1464L372.732 44.2416C372.832 44.618 372.75 45.02 372.511 45.3266C372.272 45.6332 372.19 46.0352 372.29 46.4117L372.763 48.1904C372.85 48.515 373.01 48.8149 373.232 49.0664C373.489 49.3584 373.664 49.717 373.736 50.1004C374.486 54.0752 375.649 57.9811 377.197 61.7147C393.725 106.261 405.308 89.8003 388.074 60.9428Z" fill="#B6704F"/>
<path d="M383.519 42.7563C383.883 43.3012 384.472 43.5464 384.835 43.3041C385.198 43.0617 385.198 42.4235 384.835 41.8786C384.471 41.3337 383.882 41.0884 383.519 41.3308C383.155 41.5732 383.156 42.2114 383.519 42.7563Z" fill="#FAC798"/>
<path d="M413.948 57.2264L415.9 58.5724C423.153 63.5736 424.417 73.7833 418.602 80.4019L401.926 99.3853C398.617 103.151 392.594 102.58 390.054 98.2587L376.124 74.5693C374.872 72.4402 375.187 69.7386 376.895 67.9547L387.321 57.067C388.246 56.1017 389.859 56.4131 390.357 57.6533L395.508 70.4679C396.803 73.6901 401.431 73.4892 402.442 70.167L402.854 68.8142L413.948 57.2264Z" fill="#B48CFF"/>
<path fill-rule="evenodd" clip-rule="evenodd" d="M400.434 72.4593C399.297 74.2687 398.307 76.1938 397.485 78.2212L389.643 97.5601L390.054 98.2587C392.594 102.58 398.617 103.151 401.926 99.3854L418.602 80.402C424.373 73.8332 423.171 63.7272 416.063 58.6863C410.884 61.0966 406.309 64.6929 402.734 69.2067L402.442 70.167C402.099 71.2946 401.339 72.0627 400.434 72.4593Z" fill="#9F6DFE"/>
<path d="M442.301 55.254L435.229 55.2071C417.712 55.091 402.542 67.3406 398.966 84.489L396.311 97.2198C395.36 101.777 398.828 106.061 403.484 106.081L448.361 106.27C450.7 106.28 452.455 104.133 451.979 101.842L442.301 55.254Z" fill="#B48CFF"/>
<path d="M438.413 124.202L448.786 115.412L458.106 123.924L458.111 123.999C458.278 126.596 456.746 129.003 454.322 129.95C454.103 130.035 453.925 130.201 453.824 130.414L453.061 132.033C452.841 132.502 452.827 133.041 453.025 133.52L453.984 135.844C454.15 136.246 454.062 136.708 453.76 137.021C453.284 137.513 452.478 137.452 452.082 136.894L449.478 133.226C449.226 132.871 449.161 132.416 449.304 132.005C449.442 131.612 448.882 131.37 448.689 131.739L448.216 132.645C448.117 132.834 448.056 133.041 448.036 133.253L447.591 137.982C447.521 138.718 446.791 139.202 446.086 138.98C445.609 138.83 445.282 138.392 445.274 137.892L445.174 131.981C445.169 131.692 445.232 131.407 445.358 131.147L446.128 129.56C446.35 129.101 445.771 128.675 445.399 129.024L443.335 130.965C443.172 131.118 443.039 131.3 442.941 131.501L440.799 135.909C440.449 136.629 439.48 136.762 438.949 136.163C438.679 135.86 438.595 135.434 438.728 135.05L440.536 129.832C440.611 129.615 440.726 129.414 440.875 129.24L443.392 126.292C443.725 125.902 443.267 125.343 442.819 125.591L440.309 126.985C440.117 127.092 439.945 127.232 439.803 127.399L436.831 130.879C436.275 131.531 435.228 131.371 434.891 130.583C434.743 130.235 434.774 129.836 434.975 129.516L438.044 124.627C438.145 124.467 438.269 124.324 438.413 124.202Z" fill="#B6704F"/>
<path d="M435.237 129.51C434.965 129.982 435.031 130.53 435.385 130.734C435.738 130.938 436.246 130.721 436.518 130.25C436.791 129.778 436.725 129.23 436.371 129.026C436.017 128.822 435.509 129.038 435.237 129.51Z" fill="#FAC798"/>
<path d="M439.129 134.604C438.856 135.076 438.922 135.624 439.276 135.828C439.63 136.032 440.138 135.815 440.41 135.344C440.682 134.872 440.616 134.324 440.262 134.12C439.909 133.915 439.401 134.132 439.129 134.604Z" fill="#FAC798"/>
<path d="M445.537 137.618C445.503 138.175 445.791 138.606 446.179 138.58C446.568 138.555 446.91 138.082 446.944 137.525C446.978 136.968 446.691 136.537 446.303 136.562C445.914 136.588 445.572 137.06 445.537 137.618Z" fill="#FAC798"/>
<path d="M452.183 136.368C452.564 136.786 453.077 136.896 453.33 136.614C453.582 136.332 453.477 135.764 453.096 135.346C452.715 134.927 452.202 134.817 451.95 135.099C451.698 135.381 451.802 135.949 452.183 136.368Z" fill="#FAC798"/>
<path fill-rule="evenodd" clip-rule="evenodd" d="M439.544 106.23L449.069 106.27C450.549 106.276 451.796 105.418 452.391 104.207L449.912 91.0034L445.368 66.7966C442.189 69.2301 439.618 74.1143 438.222 80.3748C436.826 86.6352 436.719 93.759 437.924 100.179C438.332 102.352 438.879 104.383 439.544 106.23Z" fill="#9F6DFE"/>
<path d="M432.439 55.2542H447.146C451.848 55.2542 456.267 57.5007 459.037 61.2996L472.014 79.0944C481.144 91.6123 481.606 108.464 473.176 121.463C469.556 127.046 462.189 128.8 456.441 125.448L449.165 121.203C445.64 119.147 444.139 114.829 445.629 111.03L450.857 97.6987C452.153 94.3938 451.914 90.6839 450.204 87.5729L432.439 55.2542Z" fill="#B48CFF"/>
<path d="M406.951 26.6682C406.815 27.6195 405.858 29.1484 408.24 31.4841C410.623 33.8199 426.7 43.7046 428.137 43.4136C435.793 41.8636 436.478 31.7087 434.011 30.3497C437.353 28.1355 434.011 23.2643 430.778 24.9988C430.778 17.5801 418.948 19.024 411.971 17.5801C404.994 16.1362 405.505 20.383 404.909 22.1666C404.314 23.9503 407.121 25.4791 406.951 26.6682Z" fill="#7B371F"/>
<path fill-rule="evenodd" clip-rule="evenodd" d="M411.96 45.1862C410.867 43.2579 410.25 40.9583 410.25 38.4891C410.25 37.5364 410.533 36.8441 410.837 36.0989C411.122 35.4031 411.223 34.6526 411.267 33.9022C411.558 28.9408 413.873 27.7415 418.632 27.7415H423.367C424.973 27.7415 426.275 29.0436 426.275 30.6498V32.2022C426.275 32.9511 426.882 33.5582 427.631 33.5582C428.38 33.5582 428.987 34.1653 428.987 34.9142V36.6616C428.987 37.6709 429.806 38.4891 430.815 38.4891H431.36C431.679 38.4891 431.973 38.3185 432.131 38.0419C433.289 36.0152 436.384 36.837 436.384 39.1713C436.384 40.4285 435.365 41.4477 434.107 41.4477C433.223 41.4477 432.469 42.0643 432.169 42.8967C432.099 43.0913 432.025 43.2836 431.946 43.4733V53.9949C431.946 58.7754 428.071 62.6507 423.29 62.6507C420.443 62.6507 418.372 59.9494 419.11 57.2001L420.306 52.7494C420.08 52.7754 419.851 52.7888 419.619 52.7888C417.645 52.7888 415.897 51.8227 414.822 50.3377C414.087 49.3216 413.506 48.1734 412.93 47.0324C412.614 46.4072 412.299 45.7842 411.96 45.1862Z" fill="#B6704F"/>
<path fill-rule="evenodd" clip-rule="evenodd" d="M419.269 38.0123L419.614 35.6002L418.637 35.4607L418.293 37.8729C418.203 38.5005 417.999 39.1063 417.692 39.6605L416.933 41.0253C416.214 42.3209 417.15 43.913 418.633 43.913V42.9268C417.902 42.9268 417.441 42.1425 417.795 41.5042L418.554 40.1394C418.92 39.48 419.162 38.7591 419.269 38.0123Z" fill="#1A2027"/>
<path fill-rule="evenodd" clip-rule="evenodd" d="M416.66 41.9406C416.388 41.9406 416.167 41.7198 416.167 41.4475L415.181 41.4475C415.181 42.2645 415.843 42.9268 416.66 42.9268L417.153 42.9268L417.153 41.9406L416.66 41.9406Z" fill="#1A2027"/>
<path fill-rule="evenodd" clip-rule="evenodd" d="M420.112 41.9406C420.384 41.9406 420.605 41.7198 420.605 41.4475L421.591 41.4475C421.591 42.2645 420.929 42.9268 420.112 42.9268L420.112 41.9406Z" fill="#1A2027"/>
<path d="M417.153 46.1033L422.491 44.8994C422.491 44.8994 423.221 47.4085 420.445 48.2111C417.669 49.0137 417.153 46.1033 417.153 46.1033Z" fill="#C61800"/>
<path fill-rule="evenodd" clip-rule="evenodd" d="M424.057 33.5581C423.185 33.5581 422.335 33.9612 421.704 34.7228L422.464 35.352C422.922 34.7986 423.501 34.5443 424.057 34.5443C424.612 34.5443 425.191 34.7986 425.649 35.352L426.409 34.7228C425.778 33.9612 424.929 33.5581 424.057 33.5581Z" fill="#1A2027"/>
<path d="M422.084 36.5167C423.173 35.2018 424.939 35.2018 426.029 36.5167C424.451 38.2918 422.742 37.2563 422.084 36.5167Z" fill="white"/>
<path d="M412.222 36.5167C413.312 35.2018 415.078 35.2018 416.167 36.5167C414.589 38.2918 412.88 37.2563 412.222 36.5167Z" fill="white"/>
<path fill-rule="evenodd" clip-rule="evenodd" d="M414.195 33.5581C413.323 33.5581 412.474 33.9612 411.843 34.7228L412.602 35.352C413.061 34.7986 413.639 34.5443 414.195 34.5443C414.751 34.5443 415.329 34.7986 415.787 35.352L416.547 34.7228C415.916 33.9612 415.067 33.5581 414.195 33.5581Z" fill="#1A2027"/>
<path fill-rule="evenodd" clip-rule="evenodd" d="M415.983 37.6118C414.985 36.8091 413.404 36.8091 412.406 37.6118L413.024 38.3801C413.661 37.8679 414.728 37.8679 415.365 38.3801L415.983 37.6118Z" fill="#1A2027"/>
<path fill-rule="evenodd" clip-rule="evenodd" d="M425.845 37.6118C424.847 36.8091 423.265 36.8091 422.268 37.6118L422.886 38.3801C423.523 37.8679 424.59 37.8679 425.226 38.3801L425.845 37.6118Z" fill="#1A2027"/>
<path d="M423.071 36.5167C423.071 37.0614 423.512 37.5029 424.057 37.5029C424.601 37.5029 425.043 37.0614 425.043 36.5167C425.043 35.972 424.601 35.5305 424.057 35.5305C423.512 35.5305 423.071 35.972 423.071 36.5167Z" fill="#1A2027"/>
<path d="M413.208 36.5167C413.208 37.0614 413.65 37.5029 414.194 37.5029C414.739 37.5029 415.181 37.0614 415.181 36.5167C415.181 35.972 414.739 35.5305 414.194 35.5305C413.65 35.5305 413.208 35.972 413.208 36.5167Z" fill="#1A2027"/>
<path d="M419.272 44.664C419.768 44.233 420.97 43.7788 422.654 44.776C424.486 45.8608 425.667 44.6527 426.029 43.9131C425.707 45.0636 424.39 47.3647 421.69 47.3647C420.438 47.3647 419.684 47.1274 419.261 46.7847C418.862 47.0629 418.198 47.2497 417.153 47.2497C414.699 47.2497 413.501 45.102 413.208 44.0281C413.537 44.7185 414.611 45.846 416.277 44.8335C417.725 43.9529 418.781 44.285 419.272 44.664Z" fill="#7B371F"/>
<g clip-path="url(#clip2_140_1034)">
<path d="M207.134 177.625L185.542 106.043H221.291C221.291 106.043 230.167 119.11 229.181 133.41C228.341 145.591 225.533 163.033 224.719 170.616C224.573 171.981 225.964 172.868 227.294 172.53C240.944 169.064 251.265 191.989 257.041 208.853L250.877 214.77L211.192 183.573C209.261 182.054 207.844 179.978 207.134 177.625Z" fill="#9B4B35"/>
<path d="M166.816 168.205C166.869 164.046 167.162 151.839 168.777 143.765C170.749 133.903 178.639 106.043 178.639 106.043H200.582C200.582 114.786 199.645 135.113 195.897 146.477L189.051 167.236C188.658 168.426 189.592 169.636 190.736 170.149C200.391 174.477 192.766 206.059 190.473 224.632H180.365L167.152 171.063C166.921 170.126 166.804 169.17 166.816 168.205Z" fill="#9B4B35"/>
<path d="M249.144 189.473C248.49 188.602 247.253 188.427 246.382 189.082L234.164 198.267C233.294 198.922 233.118 200.158 233.773 201.029L237.032 205.365C237.687 206.235 238.924 206.411 239.794 205.756L252.012 196.57C252.883 195.916 253.058 194.679 252.404 193.808L249.144 189.473Z" fill="#F23116"/>
<path d="M170.62 121.79L176.912 108.178C177.514 106.877 178.817 106.043 180.252 106.043H187.761L198.362 148.696L195.789 161.562C195.221 164.401 195.662 167.349 197.034 169.898C197.909 171.522 198.411 173.32 198.505 175.162L199.487 194.438C199.948 203.484 192.737 211.072 183.679 211.072C175.935 211.072 169.328 205.469 168.063 197.829L164.36 175.471C164.018 173.406 163.898 171.31 164 169.219L165.257 143.606C165.628 136.057 167.448 128.65 170.62 121.79Z" fill="#F23116"/>
<path d="M267.102 208.259C264.396 205.553 261.416 203.135 258.211 201.044L257.706 200.715C254.183 198.418 249.442 199.805 247.713 203.639L247.669 203.737C247.325 204.499 246.358 204.736 245.701 204.22L245.574 204.12C243.599 202.568 240.775 202.737 238.998 204.513L-nan -nanL-nan -nanL238.998 204.513C237.435 206.076 237.094 208.485 238.162 210.421L239.12 212.158C240.883 215.353 240.953 219.212 239.307 222.469L236.147 228.722C234.713 231.559 235.263 234.997 237.511 237.244L238.464 238.197C239.901 239.634 242.231 239.634 243.668 238.197L267.874 213.991C269.244 212.621 269.244 210.4 267.874 209.031L267.102 208.259Z" fill="#1A2027"/>
<path d="M266.868 208.024L240.02 234.872C239.442 235.45 239.442 236.386 240.02 236.964L-nan -nanL-nan -nanL240.02 236.964C240.598 237.542 241.534 237.542 242.112 236.964L268.96 210.116L266.868 208.024Z" fill="white"/>
<path fill-rule="evenodd" clip-rule="evenodd" d="M245.15 216.607L239.87 217.703L240.07 218.669L241.643 218.342L239.451 219.438L239.645 220.372L244.277 220.621L244.33 219.636L241.558 219.487L245.47 217.531L245.15 216.607Z" fill="#F23116"/>
<path fill-rule="evenodd" clip-rule="evenodd" d="M198.295 173.447C194.392 170.908 187.021 165.3 187.021 154.859V108.509L191.319 120.358L198.362 148.696L195.788 161.567C195.221 164.402 195.661 167.347 197.032 169.893C197.633 171.01 198.058 172.209 198.295 173.447Z" fill="#C61800"/>
<path d="M228.321 112.833L226.08 108.138C225.469 106.858 224.178 106.043 222.759 106.043H181.104L202.396 177.27C203.74 181.767 206.247 185.83 209.664 189.048L219.827 198.621C221.596 200.287 223.762 201.471 226.119 202.061C230.101 203.056 234.318 202.28 237.685 199.932L247.901 192.808C249.92 191.4 251.124 189.093 251.124 186.632C251.124 185.011 250.601 183.433 249.632 182.133L242.895 173.09C241.088 170.664 238.409 169.034 235.423 168.546C232.184 168.015 230.02 164.918 230.635 161.694L233.015 149.23C235.369 136.907 233.724 124.155 228.321 112.833Z" fill="#F23116"/>
<path d="M193.432 209.099C193.432 208.01 192.549 207.127 191.459 207.127H176.173C175.084 207.127 174.201 208.01 174.201 209.099V214.523C174.201 215.613 175.084 216.496 176.173 216.496H191.459C192.549 216.496 193.432 215.613 193.432 214.523V209.099Z" fill="#F23116"/>
<path d="M194.417 235.565C194.417 231.738 194.02 227.922 193.232 224.177L193.108 223.587C192.241 219.472 187.908 217.1 183.974 218.588L183.873 218.626C183.092 218.922 182.24 218.406 182.141 217.576L182.122 217.416C181.822 214.921 179.706 213.044 177.194 213.044L-nan -nanL-nan -nanL177.194 213.044C174.983 213.044 173.039 214.506 172.425 216.63L171.874 218.536C170.862 222.041 168.182 224.82 164.715 225.959L158.059 228.146C155.039 229.138 152.998 231.958 152.998 235.137V236.485C152.998 238.517 154.645 240.164 156.677 240.164H190.91C192.847 240.164 194.417 238.594 194.417 236.657V235.565Z" fill="#1A2027"/>
<path d="M194.417 235.234H156.449C155.632 235.234 154.97 235.896 154.97 236.713L-nan -nanL-nan -nanL154.97 236.713C154.97 237.53 155.632 238.192 156.449 238.192H194.417V235.234Z" fill="white"/>
<path fill-rule="evenodd" clip-rule="evenodd" d="M172.992 225.945L168.484 222.987L167.943 223.811L169.285 224.693L166.96 223.917L166.437 224.715L169.537 228.166L170.271 227.507L168.416 225.442L172.565 226.825L172.992 225.945Z" fill="#F23116"/>
<path fill-rule="evenodd" clip-rule="evenodd" d="M225.356 122.085L220.741 109.163L218.883 109.826L223.498 122.749C225.285 127.752 225.996 133.076 225.583 138.372L223.78 161.536C223.305 167.645 227.337 173.195 233.295 174.629C235.542 175.17 237.548 176.438 239.002 178.235L243.707 184.056C244.902 185.533 245.325 187.489 244.848 189.328C244.24 191.674 244.733 194.168 246.186 196.107L247.129 197.364L248.707 196.18L247.764 194.923C246.671 193.465 246.3 191.588 246.757 189.823C247.391 187.379 246.829 184.779 245.241 182.815L240.535 176.995C238.809 174.86 236.426 173.354 233.756 172.711C228.741 171.504 225.346 166.832 225.747 161.69L227.55 138.525C227.984 132.952 227.236 127.35 225.356 122.085Z" fill="white"/>
</g>
<path d="M143.595 83.7814L168.892 95.3863C170.487 96.0463 172.319 95.5989 173.42 94.2807V94.2807C180.563 85.727 192.592 82.0991 200.587 74.3359C201.358 73.5867 202.081 72.7789 202.748 71.9158L215.621 55.2553L201.814 55.2553H190.966C188.614 55.2111 186.156 56.4339 184.587 58.729C179.513 66.1537 172.366 76.462 166.883 83.7814C166.116 84.806 164.586 84.8118 163.663 83.9137C162.74 83.0156 158.806 77.5785 150.74 75.5444C148.403 74.9551 146.375 73.428 145.345 71.246L144.356 69.1529C144.14 68.6956 143.811 68.3003 143.401 68.0045L138.741 64.6467C138.24 64.2855 137.64 64.0889 137.024 64.0843L133.78 64.0598C133.005 64.054 132.531 64.903 132.94 65.5639L133.277 66.108C133.692 66.7779 134.355 67.2572 135.12 67.4403L136.189 67.6962C136.352 67.7353 136.509 67.7979 136.654 67.8822L136.94 68.0478C137.607 68.4346 137.838 69.2872 137.455 69.9523C137.14 70.5003 136.494 70.7641 135.882 70.5941L131.976 69.5082C131.505 69.3772 131.073 69.1319 130.718 68.7942L126.572 64.8479C126.196 64.4899 125.611 64.4778 125.224 64.8201C124.931 65.08 124.819 65.4891 124.938 65.8644L125.801 68.5792C125.907 68.9135 125.952 69.2642 125.932 69.6137C125.891 70.3364 126.124 71.0497 126.586 71.6104L126.786 71.8531C127.063 72.1901 127.228 72.6053 127.258 73.0398L127.281 73.3842C127.313 73.8619 127.582 74.2932 127.997 74.5338L128.082 74.5832C128.419 74.7785 128.646 75.1207 128.693 75.5066C128.741 75.8926 128.967 76.2347 129.304 76.43L130.897 77.353C131.187 77.5215 131.513 77.6202 131.847 77.6413C132.236 77.6658 132.613 77.796 132.935 78.016C136.276 80.2961 139.86 82.236 143.595 83.7814Z" fill="#9B4B35"/>
<path d="M171.49 65.3463C175.974 59.0163 183.249 55.2542 191.006 55.2542H194.171L183.947 91.8899C183.21 94.5331 179.943 95.4677 177.919 93.6145L164.267 81.1145C162.9 79.8621 162.678 77.7875 163.75 76.2741L171.49 65.3463Z" fill="#FFB3DA"/>
<path d="M134.66 65.9047C135.303 66.0329 135.893 65.7896 135.978 65.3614C136.064 64.9331 135.612 64.482 134.97 64.3538C134.327 64.2256 133.737 64.4688 133.652 64.8971C133.566 65.3254 134.018 65.7765 134.66 65.9047Z" fill="#D58E54"/>
<path fill-rule="evenodd" clip-rule="evenodd" d="M190.199 55.2675L186.933 56.9005C183.692 58.5214 181.283 61.4333 180.299 64.9215L173.376 89.4547L177.919 93.6143C179.943 95.4675 183.21 94.5328 183.947 91.8896L190.227 69.3893V55.2666C190.218 55.2669 190.208 55.2672 190.199 55.2675Z" fill="#F778B9"/>
<path d="M221.538 102.363V55.2542H213.648L201.126 69.7279C198.897 72.3048 194.664 70.7281 194.664 67.3205V67.3205C194.664 60.6564 188.081 55.2107 184.568 60.8733C183.722 62.2366 183.142 63.7899 182.904 65.4663L177.753 101.848C177.44 104.063 179.159 106.043 181.396 106.043H217.858C219.891 106.043 221.538 104.396 221.538 102.363Z" fill="#FFB3DA"/>
<path d="M221.538 86.319C219.576 86.319 217.695 84.7345 216.308 81.914C214.921 79.0936 214.141 75.2683 214.141 71.2796C214.141 67.2909 214.921 63.4656 216.308 60.6452C217.695 57.8247 219.576 56.2402 221.538 56.2402L221.538 71.2796V86.319Z" fill="#F778B9"/>
<path d="M240.14 92.6227L228.165 59.8914C227.146 57.1063 224.496 55.2542 221.531 55.2542C216.303 55.2542 212.872 60.7382 215.129 65.4541C219.049 73.643 224.451 85.1277 228.046 93.5725C228.559 94.7785 228.055 96.1528 227.006 96.9394C216.453 104.858 209.895 127.454 208.964 130.944C208.08 134.257 205.021 142.121 204.393 143.723C204.317 143.917 204.276 144.117 204.268 144.326L204.055 150.064C204.041 150.442 204.214 150.803 204.516 151.03C205.202 151.544 206.188 151.159 206.344 150.317L207.178 145.817C207.218 145.601 207.296 145.394 207.409 145.206L208.886 142.743C209.15 142.304 209.826 142.56 209.733 143.064L209.027 146.875C208.985 147.1 208.986 147.332 209.029 147.557L210.072 152.981C210.149 153.38 210.435 153.706 210.82 153.834C211.58 154.087 212.353 153.487 212.296 152.689L211.947 147.8C211.931 147.577 211.956 147.353 212.02 147.139L212.837 144.427C212.984 143.938 213.699 144.017 213.736 144.526L213.863 146.286C213.884 146.573 213.972 146.852 214.121 147.099L217.162 152.169C217.42 152.598 217.922 152.814 218.41 152.705C219.132 152.545 219.522 151.76 219.214 151.088L217.235 146.77C217.146 146.576 217.095 146.367 217.086 146.154L217.044 145.132C217.027 144.716 217.632 144.647 217.71 145.056C217.791 145.483 218.075 145.845 218.47 146.026L222.56 147.9C223.182 148.185 223.91 147.835 224.076 147.172C224.182 146.75 224.027 146.305 223.682 146.04L221.689 144.507C221.279 144.191 221.02 143.717 220.977 143.201L220.829 141.417C220.809 141.183 220.88 140.95 221.027 140.767C222.653 138.734 222.776 135.884 221.333 133.718L221.291 133.656L239.742 98.5766C240.71 96.7372 240.854 94.5745 240.14 92.6227Z" fill="#9B4B35"/>
<path d="M204.28 149.928C204.28 150.473 204.611 150.914 205.019 150.914C205.428 150.914 205.759 150.473 205.759 149.928C205.759 149.383 205.428 148.942 205.019 148.942C204.611 148.942 204.28 149.383 204.28 149.928Z" fill="#D58E54"/>
<path d="M210.197 152.394C210.197 152.938 210.528 153.38 210.936 153.38C211.345 153.38 211.676 152.938 211.676 152.394C211.676 151.849 211.345 151.407 210.936 151.407C210.528 151.407 210.197 151.849 210.197 152.394Z" fill="#D58E54"/>
<path d="M217.254 151.799C217.503 152.299 217.967 152.529 218.291 152.312C218.615 152.096 218.675 151.515 218.426 151.016C218.177 150.516 217.712 150.286 217.389 150.503C217.065 150.719 217.004 151.3 217.254 151.799Z" fill="#D58E54"/>
<path d="M222.384 147.394C222.923 147.566 223.423 147.405 223.5 147.034C223.577 146.664 223.203 146.224 222.664 146.052C222.125 145.88 221.625 146.041 221.548 146.412C221.471 146.782 221.845 147.222 222.384 147.394Z" fill="#D58E54"/>
<path d="M221.538 98.1532V66.5952H213.648L210.33 89.0882C209.611 93.8598 213.306 98.1532 218.131 98.1532H221.538Z" fill="#F778B9"/>
<path d="M240.695 73.2264C237.982 62.6498 228.449 55.2542 217.53 55.2542H213.402V89.0499C213.402 91.082 215.049 92.7293 217.081 92.7293H240.957C243.36 92.7293 245.118 90.4632 244.521 88.1355L240.695 73.2264Z" fill="#FFB3DA"/>
<path fill-rule="evenodd" clip-rule="evenodd" d="M189.454 16.1998C187.864 18.5824 186.534 21.308 184.669 23.4825C181.473 27.209 179.809 32.2507 180.575 37.5686L181.083 41.0946C181.579 44.5409 181.051 48.0572 179.564 51.2058L178.892 52.6289C178.316 53.8493 179.206 55.2542 180.556 55.2542H209.211C219.015 55.2542 226.962 47.3066 226.962 37.5028V35.0373C226.962 30.0313 224.89 25.5092 221.557 22.2822C219.518 20.3087 217.948 17.7513 216.16 15.5487C214.578 13.6001 212.163 12.355 209.457 12.355H196.637C193.641 12.355 191.001 13.8818 189.454 16.1998Z" fill="#1A2027"/>
<path fill-rule="evenodd" clip-rule="evenodd" d="M209.091 33.0649H202.555C199.526 33.0649 196.716 31.6479 194.911 29.3101V33.0649C193.472 33.0649 192.136 32.5704 191.077 31.7328C190.812 32.3973 190.627 33.1213 190.537 33.9047C190.45 34.6514 190.358 35.403 190.074 36.0988C189.77 36.8439 189.487 37.5362 189.487 38.489C189.487 40.9582 190.104 43.2578 191.197 45.1861C191.535 45.7841 191.85 46.4071 192.166 47.0323L192.166 47.0323C192.743 48.1733 193.324 49.3214 194.059 50.3375C195.134 51.8226 196.882 52.7887 198.855 52.7887C199.088 52.7887 199.317 52.7753 199.543 52.7492L198.347 57.1999C197.609 59.9493 199.68 62.6506 202.527 62.6506C207.307 62.6506 211.183 58.7752 211.183 53.9947V43.4731C211.262 43.2834 211.336 43.0912 211.406 42.8966C211.706 42.0642 212.46 41.4475 213.344 41.4475C214.601 41.4475 215.621 40.4284 215.621 39.1712C215.621 36.8369 212.526 36.0151 211.368 38.0418C211.351 38.0714 211.311 38.0768 211.287 38.0519C210.72 37.4419 210.283 36.2513 209.769 34.8502C209.56 34.2815 209.339 33.6782 209.091 33.0649Z" fill="#9B4B35"/>
<path fill-rule="evenodd" clip-rule="evenodd" d="M198.506 38.0123L198.851 35.6002L197.874 35.4607L197.53 37.8729C197.44 38.5005 197.236 39.1063 196.928 39.6605L196.17 41.0253C195.45 42.3209 196.387 43.913 197.869 43.913V42.9268C197.139 42.9268 196.678 42.1425 197.032 41.5042L197.79 40.1394C198.157 39.48 198.399 38.7591 198.506 38.0123Z" fill="#1A2027"/>
<path fill-rule="evenodd" clip-rule="evenodd" d="M195.897 41.9406C195.624 41.9406 195.404 41.7198 195.404 41.4475L194.417 41.4475C194.417 42.2645 195.08 42.9268 195.897 42.9268L196.39 42.9268L196.39 41.9406L195.897 41.9406Z" fill="#1A2027"/>
<path fill-rule="evenodd" clip-rule="evenodd" d="M199.348 41.9406C199.621 41.9406 199.841 41.7198 199.841 41.4475L200.828 41.4475C200.828 42.2645 200.165 42.9268 199.348 42.9268L199.348 41.9406Z" fill="#1A2027"/>
<path d="M195.406 45.9258C195.445 45.565 197.073 45.4407 197.477 46.3059C197.951 45.4407 200.636 45.049 201.813 45.7641C200.427 47.0362 200.585 48.3511 197.688 48.3511C196.565 48.3511 196.088 47.2709 195.97 46.6778C195.817 46.5239 195.366 46.2865 195.406 45.9258Z" fill="#1A2027"/>
<path fill-rule="evenodd" clip-rule="evenodd" d="M200.827 37.0098C200.827 37.5545 201.269 37.996 201.813 37.996V38.9822C200.724 38.9822 199.841 38.0991 199.841 37.0098H200.827Z" fill="#1A2027"/>
<path fill-rule="evenodd" clip-rule="evenodd" d="M195.896 37.0098C195.896 37.5545 195.455 37.996 194.91 37.996V38.9822C195.999 38.9822 196.883 38.0991 196.883 37.0098H195.896Z" fill="#1A2027"/>
<path fill-rule="evenodd" clip-rule="evenodd" d="M203.293 33.5581C204.522 33.5581 205.728 34.1256 206.631 35.2159L205.872 35.8451C205.141 34.963 204.206 34.5443 203.293 34.5443C202.38 34.5443 201.445 34.963 200.714 35.8451L199.955 35.2159C200.858 34.1256 202.064 33.5581 203.293 33.5581Z" fill="#1A2027"/>
<path fill-rule="evenodd" clip-rule="evenodd" d="M193.431 33.5581C192.202 33.5581 190.996 34.1256 190.093 35.2159L190.852 35.8451C191.583 34.963 192.518 34.5443 193.431 34.5443C194.344 34.5443 195.279 34.963 196.01 35.8451L196.769 35.2159C195.866 34.1256 194.66 33.5581 193.431 33.5581Z" fill="#1A2027"/>
<path d="M201.32 36.5167C202.41 35.2018 204.176 35.2018 205.265 36.5167C203.687 38.2918 201.978 37.2563 201.32 36.5167Z" fill="white"/>
<path d="M191.459 36.5167C192.548 35.2018 194.314 35.2018 195.403 36.5167C193.825 38.2918 192.116 37.2563 191.459 36.5167Z" fill="white"/>
<path d="M202.307 36.5167C202.307 37.0614 202.748 37.5029 203.293 37.5029C203.838 37.5029 204.279 37.0614 204.279 36.5167C204.279 35.972 203.838 35.5305 203.293 35.5305C202.748 35.5305 202.307 35.972 202.307 36.5167Z" fill="#1A2027"/>
<path d="M192.445 36.5167C192.445 37.0614 192.887 37.5029 193.431 37.5029C193.976 37.5029 194.417 37.0614 194.417 36.5167C194.417 35.972 193.976 35.5305 193.431 35.5305C192.887 35.5305 192.445 35.972 192.445 36.5167Z" fill="#1A2027"/>
<g clip-path="url(#clip3_140_1034)">
<path d="M319.293 162.243L311.172 138.764L317.336 106.043H332.379C334.105 106.043 335.599 107.243 335.972 108.928L348.955 167.633C350.373 174.045 350.245 180.703 348.582 187.055L345.207 199.947C344.415 202.971 342.378 205.518 339.601 206.954L338.905 207.315C337.896 207.837 337.185 208.795 336.978 209.911L334.841 221.427H320.788L319.681 209.502C319.6 208.624 319.206 207.805 318.572 207.194L316.094 204.803C313.614 202.411 312.393 198.999 312.793 195.577L315.312 174.038C315.505 172.388 316.27 170.858 317.474 169.714C319.492 167.796 320.203 164.875 319.293 162.243Z" fill="#F97600"/>
<path fill-rule="evenodd" clip-rule="evenodd" d="M313.383 145.157L319.293 162.243C320.203 164.875 319.492 167.796 317.473 169.714C316.269 170.858 315.504 172.388 315.312 174.038L314.675 179.486C318.669 176.511 323.993 171.129 323.993 162.256V115.905L313.383 145.157ZM320.28 215.961C327 215.396 335.539 209.358 329.663 209.593C325.591 209.756 321.406 208.416 318.915 207.574C319.348 208.127 319.616 208.796 319.681 209.502L320.28 215.961Z" fill="#DE5000"/>
<path d="M281.016 129.062L281.472 126.138C282.522 119.399 285.045 112.974 288.861 107.321C289.4 106.522 290.301 106.043 291.265 106.043H328.924L322.435 124.051C320.194 130.27 318.673 136.725 317.903 143.29L314.623 171.246C314.132 175.431 313.193 179.551 311.823 183.536L304.93 203.574C303.896 206.577 301.475 208.896 298.43 209.798C297.313 210.129 296.456 211.028 296.18 212.16L293.914 221.427H281.587V209.729C281.587 208.869 281.174 208.062 280.478 207.559C278.387 206.049 277.149 203.628 277.149 201.049V176.823C277.149 174.573 277.903 172.388 279.289 170.616C280.772 168.721 281.527 166.359 281.419 163.955L280.374 140.78C280.197 136.863 280.412 132.937 281.016 129.062Z" fill="#F97600"/>
<path d="M317.583 235.565C317.583 231.738 317.98 227.922 318.769 224.177L318.893 223.587C319.759 219.472 324.093 217.1 328.026 218.588L328.127 218.626C328.908 218.922 329.76 218.406 329.859 217.576L329.879 217.416C330.178 214.921 332.294 213.044 334.807 213.044L-nan -nanL-nan -nanL334.807 213.044C337.017 213.044 338.962 214.506 339.575 216.63L340.126 218.536C341.139 222.041 343.818 224.82 347.285 225.959L353.941 228.146C356.961 229.138 359.003 231.958 359.003 235.137V236.485C359.003 238.517 357.355 240.164 355.323 240.164H321.09C319.153 240.164 317.583 238.594 317.583 236.657V235.565Z" fill="#1A2027"/>
<path d="M279.121 229.809L280.182 219.823C280.346 218.279 282.274 217.675 283.289 218.849L-nan -nanL-nan -nanL283.289 218.849C283.444 219.028 283.728 219.009 283.856 218.81L285.706 215.945C286.874 214.136 288.88 213.044 291.033 213.044L-nan -nanL-nan -nanL291.033 213.044C293.851 213.044 296.331 214.904 297.12 217.61L297.977 220.549C298.655 222.877 300.081 224.917 302.035 226.353L303.735 227.604C305.621 228.99 306.735 231.191 306.735 233.532V236.485C306.735 238.517 305.087 240.164 303.055 240.164H282.801C280.769 240.164 279.121 238.517 279.121 236.485V229.809Z" fill="#1A2027"/>
<path d="M317.583 235.234H355.551C356.368 235.234 357.03 235.896 357.03 236.713L-nan -nanL-nan -nanL357.03 236.713C357.03 237.53 356.368 238.192 355.551 238.192H317.583V235.234Z" fill="white"/>
<path d="M279.121 235.234H287.011C287.828 235.234 288.49 235.896 288.49 236.713L-nan -nanL-nan -nanL288.49 236.713C288.49 237.53 287.828 238.192 287.011 238.192H279.121V235.234Z" fill="white"/>
<path fill-rule="evenodd" clip-rule="evenodd" d="M339.008 225.945L343.517 222.987L344.058 223.811L342.715 224.693L345.04 223.917L345.563 224.715L342.463 228.166L341.73 227.507L343.584 225.442L339.435 226.825L339.008 225.945Z" fill="#1570FF"/>
<path fill-rule="evenodd" clip-rule="evenodd" d="M289.613 224.891L298.242 222.918L298.462 223.88L294.093 224.878H299.585L299.725 225.844L293.068 227.817L292.788 226.871L296.185 225.865H289.723L289.613 224.891Z" fill="#1570FF"/>
<path fill-rule="evenodd" clip-rule="evenodd" d="M281.587 216.483V209.728C281.587 208.882 281.187 208.086 280.509 207.582C283.071 208.422 287.424 209.807 291.449 210.332C293.784 210.637 292.858 210.899 290.806 211.482C288.034 212.269 283.208 213.639 281.587 216.483Z" fill="#DE5000"/>
</g>
<path d="M291.942 58.7058C291.942 56.7995 293.487 55.2542 295.393 55.2542H328.924C330.83 55.2542 332.375 56.7995 332.375 58.7058V102.591C332.375 104.497 330.83 106.043 328.924 106.043H295.393C293.487 106.043 291.942 104.497 291.942 102.591V58.7058Z" fill="black"/>
<path d="M290.463 55.2542H306.843C321.067 55.2542 332.598 66.7854 332.598 81.0099V102.382C332.598 104.414 330.951 106.043 328.919 106.043H295.286C293.288 106.043 291.656 104.449 291.607 102.453L290.463 55.2542Z" fill="#F4B510"/>
<path d="M271.822 92.7263L283.835 59.8914C284.854 57.1063 287.504 55.2542 290.469 55.2542C295.697 55.2542 299.128 60.7382 296.871 65.4541C292.951 73.643 287.549 85.1277 283.954 93.5725C283.441 94.7785 283.945 96.154 284.999 96.933C293.537 103.243 300.27 118.9 302.778 126.753H286.092L272.136 98.515C271.243 96.7097 271.13 94.6175 271.822 92.7263Z" fill="#F4B510"/>
<path d="M307.607 143.723C306.979 142.121 303.92 134.257 303.036 130.944C302.849 130.242 302.433 128.728 301.803 126.753H287.01L290.709 133.656L290.667 133.718C289.224 135.884 289.347 138.735 290.973 140.767C291.12 140.95 291.191 141.183 291.171 141.417L291.023 143.201C290.98 143.717 290.721 144.191 290.311 144.507L288.318 146.04C287.973 146.305 287.818 146.75 287.924 147.172C288.09 147.836 288.818 148.186 289.44 147.9L293.53 146.026C293.925 145.845 294.209 145.483 294.29 145.056C294.368 144.647 294.973 144.717 294.956 145.133L294.913 146.154C294.905 146.367 294.854 146.576 294.765 146.77L292.786 151.088C292.478 151.76 292.868 152.545 293.59 152.705C294.078 152.814 294.58 152.598 294.837 152.169L297.879 147.099C298.028 146.852 298.116 146.573 298.137 146.286L298.264 144.526C298.301 144.017 299.016 143.938 299.163 144.427L299.98 147.139C300.044 147.353 300.069 147.577 300.053 147.8L299.704 152.689C299.647 153.487 300.42 154.088 301.18 153.834C301.565 153.706 301.851 153.38 301.928 152.981L302.971 147.557C303.014 147.332 303.015 147.101 302.973 146.875L302.267 143.064C302.174 142.56 302.85 142.304 303.114 142.744L304.591 145.206C304.704 145.394 304.782 145.601 304.822 145.817L305.656 150.317C305.812 151.159 306.798 151.544 307.484 151.031C307.786 150.803 307.959 150.442 307.945 150.064L307.732 144.326C307.724 144.118 307.683 143.917 307.607 143.723Z" fill="#7B371F"/>
<path d="M307.721 149.928C307.721 150.473 307.39 150.914 306.981 150.914C306.573 150.914 306.241 150.473 306.241 149.928C306.241 149.383 306.573 148.942 306.981 148.942C307.39 148.942 307.721 149.383 307.721 149.928Z" fill="#D58E54"/>
<path d="M301.804 152.394C301.804 152.938 301.472 153.38 301.064 153.38C300.655 153.38 300.324 152.938 300.324 152.394C300.324 151.849 300.655 151.407 301.064 151.407C301.472 151.407 301.804 151.849 301.804 152.394Z" fill="#D58E54"/>
<path d="M294.747 151.799C294.497 152.299 294.033 152.529 293.709 152.312C293.386 152.096 293.325 151.515 293.575 151.016C293.824 150.516 294.288 150.286 294.612 150.503C294.935 150.719 294.996 151.3 294.747 151.799Z" fill="#D58E54"/>
<path d="M289.616 147.394C289.077 147.566 288.577 147.405 288.5 147.034C288.423 146.664 288.797 146.224 289.336 146.052C289.875 145.88 290.375 146.041 290.452 146.412C290.53 146.782 290.155 147.222 289.616 147.394Z" fill="#D58E54"/>
<path d="M312.632 84.092L297.613 55.2542H316.104V83.2421C316.104 85.167 313.521 85.7991 312.632 84.092Z" fill="#E379F8"/>
<path fill-rule="evenodd" clip-rule="evenodd" d="M319.555 55.2542V87.2129C319.555 91.8598 313.318 93.3816 311.178 89.257L294.025 56.2015L295.776 55.293L312.929 88.3485C314.118 90.64 317.583 89.7945 317.583 87.2129V55.2542H319.555Z" fill="#FECE00"/>
<path d="M271.87 64.2578L282.573 56.98H285.038L306.981 91.4966V111.467H273.451L271.725 135.135H253.973V100.584C253.973 99.4712 254.226 98.3727 254.712 97.3714L269.388 67.1301C269.95 65.9721 270.806 64.9816 271.87 64.2578Z" fill="#F97600"/>
<path fill-rule="evenodd" clip-rule="evenodd" d="M284.299 63.1436L277.376 68.4843C276.253 69.35 275.346 70.4633 274.725 71.7374L262.3 97.2317C261.688 98.4871 261.37 99.8653 261.37 101.262V135.135H253.973V100.584C253.973 99.4712 254.226 98.3727 254.712 97.3714L269.388 67.1301C269.95 65.9721 270.806 64.9816 271.87 64.2578L282.573 56.98H285.038L285.59 57.8482L284.299 63.1436Z" fill="#105ACD"/>
<path d="M328.431 94.4551L337.799 63.8833L343.418 77.4698C344.172 79.2939 344.32 81.3122 343.839 83.2266L338.539 104.317H328.431V94.4551Z" fill="#F97600"/>
<path fill-rule="evenodd" clip-rule="evenodd" d="M293.919 50.8213C293.917 50.8192 293.913 50.8166 293.916 50.8159C294.059 50.7827 301.378 49.0906 308.214 49.0906C315.084 49.0906 321.221 50.7997 321.281 50.8163C321.282 50.8167 321.28 50.8176 321.279 50.8187V50.8187C321.278 50.82 321.279 50.8218 321.281 50.8219C321.506 50.8351 321.73 50.8719 321.947 50.9319L335.416 54.6357C336.958 55.0597 336.917 57.2603 335.36 57.6266C334.229 57.8928 333.786 59.2665 334.55 60.1429L338.849 65.0786C339.269 65.5614 339.408 66.2281 339.216 66.8389L330.038 96.0206C329.953 96.2904 329.91 96.5715 329.91 96.8542C329.91 98.3888 331.154 99.6327 332.689 99.6327H339.526C341.296 99.6327 342.731 101.068 342.731 102.838C342.731 104.608 341.296 106.043 339.526 106.043H330.403C328.497 106.043 326.952 104.498 326.952 102.591V96.5519C326.952 96.3054 326.925 96.0596 326.873 95.8187L318.223 56.0309C318.125 55.5776 317.724 55.2543 317.26 55.2543H300.44C299.801 55.2543 299.331 55.8526 299.482 56.4735L309.102 96.0256C309.167 96.2926 309.2 96.5665 309.2 96.8414V111.96C309.2 113.866 307.655 115.412 305.749 115.412H276.533C274.695 115.412 273.204 113.922 273.204 112.083C273.204 110.245 274.695 108.755 276.533 108.755H303.037C304.943 108.755 306.488 107.21 306.488 105.303V97.7818C306.488 96.9113 306.159 96.073 305.567 95.4347L279.26 67.0682C278.62 66.3787 278.604 65.318 279.221 64.6089L283.023 60.2435C283.827 59.3214 283.361 57.8761 282.171 57.596C280.563 57.2178 280.48 54.961 282.056 54.4659L293.162 50.9752C293.408 50.8981 293.661 50.8487 293.917 50.8278C293.92 50.8276 293.921 50.8236 293.919 50.8213V50.8213Z" fill="white"/>
<path d="M277.149 90.6241C277.149 89.6081 277.973 88.7844 278.989 88.7844H292.075C293.091 88.7844 293.914 89.6081 293.914 90.6241V101.303C293.914 101.81 293.705 102.295 293.336 102.643L290.52 105.293C290.008 105.774 289.332 106.043 288.629 106.043H282.435C281.732 106.043 281.055 105.774 280.544 105.293L277.728 102.643C277.359 102.295 277.149 101.81 277.149 101.303V90.6241Z" fill="#1570FF"/>
<path d="M337.307 87.6656C337.307 86.6496 338.13 85.8259 339.146 85.8259H341.877C342.893 85.8259 343.717 86.6496 343.717 87.6656V96.0364C343.717 96.3259 343.649 96.6113 343.517 96.8694L342.84 98.2037C342.395 99.0803 341.495 99.6326 340.512 99.6326L-nan -nanL-nan -nanL340.512 99.6326C339.529 99.6326 338.629 99.0803 338.184 98.2037L337.506 96.8694C337.375 96.6113 337.307 96.3259 337.307 96.0364V87.6656Z" fill="#1570FF"/>
<path d="M253.481 135.875C253.481 135.33 253.922 134.889 254.467 134.889H271.232C271.777 134.889 272.218 135.33 272.218 135.875V142.778C272.218 143.323 271.777 143.764 271.232 143.764H254.467C253.922 143.764 253.481 143.323 253.481 142.778V135.875Z" fill="#DE5000"/>
<path fill-rule="evenodd" clip-rule="evenodd" d="M284.63 123.794L283.655 121.822H301.015C301.281 122.502 301.53 123.161 301.762 123.794H284.63Z" fill="#FECE00"/>
<path d="M314.79 19.424C321.904 20.4128 327.72 25.4782 323.253 32.0787C318.716 38.7811 320.012 44.9691 311.9 46.616C307.156 47.5791 297.91 49.5824 297.91 37.4696C297.91 34.256 296.941 24.6003 303.371 26.0984C304.531 20.7479 308.98 18.6164 314.79 19.424Z" fill="#1A2027"/>
<path fill-rule="evenodd" clip-rule="evenodd" d="M320.803 45.1861C321.896 43.2578 322.513 40.9582 322.513 38.489C322.513 37.5363 322.23 36.8439 321.926 36.0988L321.926 36.0988C321.641 35.403 321.541 34.6519 321.492 33.9018C321.17 29.0231 318.64 28.3806 313.884 28.3806C313.308 28.3806 312.719 28.3603 312.136 28.3403C310.013 28.2673 307.975 28.1972 306.981 29.1202C305.722 30.2881 305.113 32.0023 304.529 33.6461C303.796 35.7089 303.103 37.6608 301.215 38.2837C300.989 38.3581 300.75 38.248 300.632 38.0418C299.474 36.0151 296.379 36.8369 296.379 39.1712C296.379 40.4284 297.398 41.4476 298.655 41.4476C299.54 41.4476 300.294 42.0642 300.593 42.8966C300.664 43.0912 300.738 43.2834 300.817 43.4731V53.9948C300.817 58.7753 304.692 62.6506 309.473 62.6506C312.32 62.6506 314.391 59.9493 313.653 57.2L312.457 52.7492C312.683 52.7753 312.912 52.7887 313.144 52.7887C315.118 52.7887 316.866 51.8226 317.941 50.3376C318.676 49.3214 319.257 48.1733 319.833 47.0323C320.149 46.4071 320.464 45.7841 320.803 45.1861Z" fill="#7B371F"/>
<path fill-rule="evenodd" clip-rule="evenodd" d="M313.494 38.0123L313.149 35.6002L314.125 35.4607L314.47 37.8729C314.559 38.5005 314.763 39.1063 315.071 39.6605L315.829 41.0253C316.549 42.3209 315.612 43.913 314.13 43.913V42.9268C314.86 42.9268 315.322 42.1425 314.967 41.5042L314.209 40.1394C313.843 39.48 313.6 38.7591 313.494 38.0123Z" fill="#1A2027"/>
<path fill-rule="evenodd" clip-rule="evenodd" d="M316.103 41.9406C316.375 41.9406 316.596 41.7198 316.596 41.4475L317.582 41.4475C317.582 42.2645 316.92 42.9268 316.103 42.9268L315.61 42.9268L315.61 41.9406L316.103 41.9406Z" fill="#1A2027"/>
<path fill-rule="evenodd" clip-rule="evenodd" d="M312.651 41.9406C312.379 41.9406 312.158 41.7198 312.158 41.4475L311.172 41.4475C311.172 42.2645 311.834 42.9268 312.651 42.9268L312.651 41.9406Z" fill="#1A2027"/>
<path fill-rule="evenodd" clip-rule="evenodd" d="M315.171 47.5891C314.302 45.889 312.212 45.3525 310.451 46.4753L309.921 45.6437C312.124 44.2395 314.89 44.8719 316.049 47.1406L315.171 47.5891Z" fill="#1A2027"/>
<path fill-rule="evenodd" clip-rule="evenodd" d="M310.072 33.8727C309.169 34.9631 307.963 35.5307 306.734 35.5305L306.734 34.5443C307.646 34.5444 308.582 34.1258 309.313 33.2436L310.072 33.8727Z" fill="#1A2027"/>
<path fill-rule="evenodd" clip-rule="evenodd" d="M317.202 33.8727C318.105 34.9631 319.312 35.5307 320.541 35.5305L320.54 34.5443C319.628 34.5444 318.692 34.1258 317.962 33.2436L317.202 33.8727Z" fill="#1A2027"/>
<path d="M310.679 36.5167C309.589 35.2018 307.823 35.2018 306.734 36.5167C308.312 38.2918 310.021 37.2563 310.679 36.5167Z" fill="white"/>
<path d="M320.541 36.5167C319.451 35.2018 317.685 35.2018 316.596 36.5167C318.174 38.2918 319.883 37.2563 320.541 36.5167Z" fill="white"/>
<path fill-rule="evenodd" clip-rule="evenodd" d="M316.78 38.3801C317.777 39.1829 319.359 39.1829 320.356 38.3801L319.738 37.6118C319.102 38.124 318.034 38.124 317.398 37.6118L316.78 38.3801Z" fill="#1A2027"/>
<path fill-rule="evenodd" clip-rule="evenodd" d="M306.918 38.3801C307.915 39.1829 309.497 39.1829 310.495 38.3801L309.876 37.6118C309.24 38.124 308.172 38.124 307.536 37.6118L306.918 38.3801Z" fill="#1A2027"/>
<path d="M309.692 36.5167C309.692 37.0614 309.251 37.5029 308.706 37.5029C308.162 37.5029 307.72 37.0614 307.72 36.5167C307.72 35.972 308.162 35.5305 308.706 35.5305C309.251 35.5305 309.692 35.972 309.692 36.5167Z" fill="#1A2027"/>
<path d="M319.554 36.5167C319.554 37.0614 319.113 37.5029 318.568 37.5029C318.023 37.5029 317.582 37.0614 317.582 36.5167C317.582 35.972 318.023 35.5305 318.568 35.5305C319.113 35.5305 319.554 35.972 319.554 36.5167Z" fill="#1A2027"/>
<path fill-rule="evenodd" clip-rule="evenodd" d="M313.097 43.6705C312.647 43.5193 312.135 43.4199 311.695 43.4199C310.66 43.4199 308.59 44.581 308.214 47.6772C308.217 47.6774 308.221 47.6777 308.224 47.6779C308.141 48.4539 308.434 53.2818 313.728 53.2818C317.815 53.2818 318.65 50.364 318.562 47.677C318.563 47.6771 318.564 47.6771 318.564 47.6772C318.648 46.0363 317.454 42.7543 314.992 43.6462C314.401 43.8602 313.693 43.871 313.097 43.6705ZM317.739 47.5082C317.067 47.2986 316.402 46.9332 315.812 46.5601C314.693 45.8518 313.384 45.8287 312.227 46.4748C311.425 46.9224 310.479 47.3703 309.51 47.5734C309.771 47.7558 309.977 48.0556 310.18 48.3522C310.455 48.7536 310.726 49.1493 311.126 49.2414C311.804 49.2414 312.217 48.9118 312.753 48.4525C313.229 48.0449 313.705 47.6363 314.2 47.6363C314.694 47.6363 315.205 48.0696 315.622 48.4632C316.008 48.8273 316.358 49.1575 316.708 49.0798C317.011 49.0125 317.174 48.6363 317.346 48.238C317.459 47.9775 317.576 47.7075 317.739 47.5082Z" fill="#1A2027"/>
<defs>
<clipPath id="clip0_140_1034">
<rect width="123.274" height="134.122" fill="white" transform="translate(0 106.043)"/>
</clipPath>
<clipPath id="clip1_140_1034">
<rect width="123.274" height="134.122" fill="white" transform="matrix(-1 0 0 1 490.624 106.043)"/>
</clipPath>
<clipPath id="clip2_140_1034">
<rect width="123.274" height="134.122" fill="white" transform="matrix(-1 0 0 1 269.861 106.043)"/>
</clipPath>
<clipPath id="clip3_140_1034">
<rect width="123.274" height="134.122" fill="white" transform="translate(242.139 106.043)"/>
</clipPath>
</defs>
</svg>
