<svg width="111" height="34" viewBox="0 0 111 34" fill="none" xmlns="http://www.w3.org/2000/svg">
<path d="M46.4579 21.7737C47.0707 22.8858 47.8877 23.6802 49.1133 23.6802C49.6353 23.6802 51.4737 23.6802 51.9049 23.6802V17.3254C51.224 17.3254 48.8183 17.3254 48.1374 17.3254C47.7743 17.28 47.4565 17.1438 47.1842 16.9168L47.1615 13.3082C47.1388 9.44989 45.4593 7.49805 42.4861 7.49805C39.513 7.49805 37.8335 9.44989 37.8108 13.3082L37.7881 18.2105C37.7881 21.5014 39.1952 24.0887 42.4861 24.0887C44.4607 24.0887 45.7543 23.2036 46.4579 21.7737ZM39.8988 15.782V13.7394C39.9215 11.833 41.2379 10.6755 42.4861 10.6755C43.7344 10.6755 45.0735 11.833 45.0962 13.7394V14.4657C44.6422 14.0572 44.0975 13.7621 43.3486 13.7621C43.0535 13.7621 42.7585 13.8075 42.418 13.8983C41.079 14.4884 40.3527 15.5324 39.9896 16.2133C39.9669 16.0771 39.9215 15.9409 39.8988 15.782ZM41.1471 17.5296C41.6464 16.0544 42.94 15.6232 42.94 15.6232C43.6663 15.5097 44.1429 16.0998 44.5741 16.9849C44.0975 17.5523 43.394 17.7339 42.94 17.7339H42.0322C41.7826 17.7339 41.4648 17.6658 41.1471 17.5296Z" fill="#FEBAB1"/>
<path d="M63.5853 14.9423V7.81579H58.1837V13.6486L59.4547 14.1252C59.4547 15.26 59.4547 16.304 59.4547 17.1665C59.4547 18.2786 59.1596 20.412 57.9567 20.4574L57.3212 20.4801C56.0503 20.4574 55.3013 18.619 55.3013 16.6672C55.3013 15.1692 55.3013 11.7422 55.3013 9.35911L56.1411 9.15484V7.79309H52.4189V9.15484L53.2587 9.60876C53.2587 11.9237 53.2587 14.3749 53.2587 16.6672C53.3041 21.1383 54.575 23.6575 57.0716 23.6575L59.7724 23.6802C62.0874 23.6802 63.5853 21.0248 63.5853 14.9423Z" fill="#FEBAB1"/>
<path d="M68.9263 22.2277L69.6752 18.8914C70.5377 18.9595 72.83 19.3907 72.9207 21.978L72.2172 22.3638V23.7029H75.9393V22.3638L75.1222 21.9099L72.2172 7.83849H66.4751V9.08676L67.5191 8.74632C66.861 11.5833 65.2495 18.6417 64.4098 22.3638H63.4566V23.7029H69.2213V22.3638L68.9263 22.2277ZM70.1065 17.053L71.1051 12.6954L72.1264 17.7339C71.6044 17.3934 70.9235 17.1211 70.1065 17.053Z" fill="#FEBAB1"/>
<path d="M83.2582 20.5255C82.305 20.412 82.1915 19.7311 82.0099 19.0502C85.1873 18.7779 86.776 17.4615 86.776 13.7621C86.776 9.85842 85.2327 7.81579 81.7376 7.81579H76.2679V14.0572L77.153 14.0798L77.1076 21.8872L76.2679 22.3411V23.6802H79.99V22.3411L79.2183 21.9326V19.0729H79.5361C82.1007 19.2999 79.2183 23.7029 83.0312 23.7029H87.0484V20.5255H83.2582ZM81.6468 14.1706C82.2823 14.1706 82.8951 14.0572 82.8951 14.9877C82.8951 15.782 82.3503 15.8274 81.5787 15.8274C80.8751 15.8501 79.99 15.8501 79.2183 15.8728V14.1252L81.6468 14.1706Z" fill="#FEBAB1"/>
<path d="M93.169 21.9326V14.1706H96.2783L96.528 15.3962H97.4131V7.81579H87.0865V15.3962H87.9717L88.2213 14.1706H91.1037L91.0583 21.8872L90.2185 22.3411V23.6802H93.9407V22.3411L93.169 21.9326Z" fill="#FEBAB1"/>
<path d="M104.615 21.9326V19.4361H104.638L109.064 9.51798L109.813 9.15484V7.81579H104.07V9.15484L104.638 9.4272L102.777 13.5351L101.029 9.51798L101.71 9.15484V7.81579H97.988V9.15484L98.9412 9.67685L102.55 17.802L102.504 21.8872L101.665 22.3411V23.6802H105.387V22.3411L104.615 21.9326Z" fill="#FEBAB1"/>
<mask id="path-2-outside-1_126_643" maskUnits="userSpaceOnUse" x="36.7881" y="6.49805" width="75" height="19" fill="black">
<rect fill="white" x="36.7881" y="6.49805" width="75" height="19"/>
<path d="M46.4579 21.7737C47.0707 22.8858 47.8877 23.6802 49.1133 23.6802C49.6353 23.6802 51.4737 23.6802 51.9049 23.6802V17.3254C51.224 17.3254 48.8183 17.3254 48.1374 17.3254C47.7743 17.28 47.4565 17.1438 47.1842 16.9168L47.1615 13.3082C47.1388 9.44989 45.4593 7.49805 42.4861 7.49805C39.513 7.49805 37.8335 9.44989 37.8108 13.3082L37.7881 18.2105C37.7881 21.5014 39.1952 24.0887 42.4861 24.0887C44.4607 24.0887 45.7543 23.2036 46.4579 21.7737ZM39.8988 15.782V13.7394C39.9215 11.833 41.2379 10.6755 42.4861 10.6755C43.7344 10.6755 45.0735 11.833 45.0962 13.7394V14.4657C44.6422 14.0572 44.0975 13.7621 43.3486 13.7621C43.0535 13.7621 42.7585 13.8075 42.418 13.8983C41.079 14.4884 40.3527 15.5324 39.9896 16.2133C39.9669 16.0771 39.9215 15.9409 39.8988 15.782ZM41.1471 17.5296C41.6464 16.0544 42.94 15.6232 42.94 15.6232C43.6663 15.5097 44.1429 16.0998 44.5741 16.9849C44.0975 17.5523 43.394 17.7339 42.94 17.7339H42.0322C41.7826 17.7339 41.4648 17.6658 41.1471 17.5296Z"/>
<path d="M63.5853 14.9423V7.81579H58.1837V13.6486L59.4547 14.1252C59.4547 15.26 59.4547 16.304 59.4547 17.1665C59.4547 18.2786 59.1596 20.412 57.9567 20.4574L57.3212 20.4801C56.0503 20.4574 55.3013 18.619 55.3013 16.6672C55.3013 15.1692 55.3013 11.7422 55.3013 9.35911L56.1411 9.15484V7.79309H52.4189V9.15484L53.2587 9.60876C53.2587 11.9237 53.2587 14.3749 53.2587 16.6672C53.3041 21.1383 54.575 23.6575 57.0716 23.6575L59.7724 23.6802C62.0874 23.6802 63.5853 21.0248 63.5853 14.9423Z"/>
<path d="M68.9263 22.2277L69.6752 18.8914C70.5377 18.9595 72.83 19.3907 72.9207 21.978L72.2172 22.3638V23.7029H75.9393V22.3638L75.1222 21.9099L72.2172 7.83849H66.4751V9.08676L67.5191 8.74632C66.861 11.5833 65.2496 18.6417 64.4098 22.3638H63.4566V23.7029H69.2213V22.3638L68.9263 22.2277ZM70.1065 17.053L71.1051 12.6954L72.1264 17.7339C71.6044 17.3934 70.9235 17.1211 70.1065 17.053Z"/>
<path d="M83.2582 20.5255C82.305 20.412 82.1915 19.7311 82.0099 19.0502C85.1873 18.7779 86.776 17.4615 86.776 13.7621C86.776 9.85842 85.2327 7.81579 81.7376 7.81579H76.2679V14.0572L77.153 14.0798L77.1076 21.8872L76.2679 22.3411V23.6802H79.99V22.3411L79.2183 21.9326V19.0729H79.5361C82.1007 19.2999 79.2183 23.7029 83.0312 23.7029H87.0484V20.5255H83.2582ZM81.6468 14.1706C82.2823 14.1706 82.8951 14.0572 82.8951 14.9877C82.8951 15.782 82.3503 15.8274 81.5787 15.8274C80.8751 15.8501 79.99 15.8501 79.2183 15.8728V14.1252L81.6468 14.1706Z"/>
<path d="M93.169 21.9326V14.1706H96.2783L96.528 15.3962H97.4131V7.81579H87.0865V15.3962H87.9717L88.2213 14.1706H91.1037L91.0583 21.8872L90.2185 22.3411V23.6802H93.9407V22.3411L93.169 21.9326Z"/>
<path d="M104.615 21.9326V19.4361H104.638L109.064 9.51798L109.813 9.15484V7.81579H104.07V9.15484L104.638 9.4272L102.777 13.5351L101.029 9.51798L101.71 9.15484V7.81579H97.988V9.15484L98.9412 9.67685L102.55 17.802L102.504 21.8872L101.665 22.3411V23.6802H105.387V22.3411L104.615 21.9326Z"/>
</mask>
<path d="M46.4579 21.7737C47.0707 22.8858 47.8877 23.6802 49.1133 23.6802C49.6353 23.6802 51.4737 23.6802 51.9049 23.6802V17.3254C51.224 17.3254 48.8183 17.3254 48.1374 17.3254C47.7743 17.28 47.4565 17.1438 47.1842 16.9168L47.1615 13.3082C47.1388 9.44989 45.4593 7.49805 42.4861 7.49805C39.513 7.49805 37.8335 9.44989 37.8108 13.3082L37.7881 18.2105C37.7881 21.5014 39.1952 24.0887 42.4861 24.0887C44.4607 24.0887 45.7543 23.2036 46.4579 21.7737ZM39.8988 15.782V13.7394C39.9215 11.833 41.2379 10.6755 42.4861 10.6755C43.7344 10.6755 45.0735 11.833 45.0962 13.7394V14.4657C44.6422 14.0572 44.0975 13.7621 43.3486 13.7621C43.0535 13.7621 42.7585 13.8075 42.418 13.8983C41.079 14.4884 40.3527 15.5324 39.9896 16.2133C39.9669 16.0771 39.9215 15.9409 39.8988 15.782ZM41.1471 17.5296C41.6464 16.0544 42.94 15.6232 42.94 15.6232C43.6663 15.5097 44.1429 16.0998 44.5741 16.9849C44.0975 17.5523 43.394 17.7339 42.94 17.7339H42.0322C41.7826 17.7339 41.4648 17.6658 41.1471 17.5296Z" stroke="#670247" stroke-width="2" mask="url(#path-2-outside-1_126_643)"/>
<path d="M63.5853 14.9423V7.81579H58.1837V13.6486L59.4547 14.1252C59.4547 15.26 59.4547 16.304 59.4547 17.1665C59.4547 18.2786 59.1596 20.412 57.9567 20.4574L57.3212 20.4801C56.0503 20.4574 55.3013 18.619 55.3013 16.6672C55.3013 15.1692 55.3013 11.7422 55.3013 9.35911L56.1411 9.15484V7.79309H52.4189V9.15484L53.2587 9.60876C53.2587 11.9237 53.2587 14.3749 53.2587 16.6672C53.3041 21.1383 54.575 23.6575 57.0716 23.6575L59.7724 23.6802C62.0874 23.6802 63.5853 21.0248 63.5853 14.9423Z" stroke="#670247" stroke-width="2" mask="url(#path-2-outside-1_126_643)"/>
<path d="M68.9263 22.2277L69.6752 18.8914C70.5377 18.9595 72.83 19.3907 72.9207 21.978L72.2172 22.3638V23.7029H75.9393V22.3638L75.1222 21.9099L72.2172 7.83849H66.4751V9.08676L67.5191 8.74632C66.861 11.5833 65.2496 18.6417 64.4098 22.3638H63.4566V23.7029H69.2213V22.3638L68.9263 22.2277ZM70.1065 17.053L71.1051 12.6954L72.1264 17.7339C71.6044 17.3934 70.9235 17.1211 70.1065 17.053Z" stroke="#670247" stroke-width="2" mask="url(#path-2-outside-1_126_643)"/>
<path d="M83.2582 20.5255C82.305 20.412 82.1915 19.7311 82.0099 19.0502C85.1873 18.7779 86.776 17.4615 86.776 13.7621C86.776 9.85842 85.2327 7.81579 81.7376 7.81579H76.2679V14.0572L77.153 14.0798L77.1076 21.8872L76.2679 22.3411V23.6802H79.99V22.3411L79.2183 21.9326V19.0729H79.5361C82.1007 19.2999 79.2183 23.7029 83.0312 23.7029H87.0484V20.5255H83.2582ZM81.6468 14.1706C82.2823 14.1706 82.8951 14.0572 82.8951 14.9877C82.8951 15.782 82.3503 15.8274 81.5787 15.8274C80.8751 15.8501 79.99 15.8501 79.2183 15.8728V14.1252L81.6468 14.1706Z" stroke="#670247" stroke-width="2" mask="url(#path-2-outside-1_126_643)"/>
<path d="M93.169 21.9326V14.1706H96.2783L96.528 15.3962H97.4131V7.81579H87.0865V15.3962H87.9717L88.2213 14.1706H91.1037L91.0583 21.8872L90.2185 22.3411V23.6802H93.9407V22.3411L93.169 21.9326Z" stroke="#670247" stroke-width="2" mask="url(#path-2-outside-1_126_643)"/>
<path d="M104.615 21.9326V19.4361H104.638L109.064 9.51798L109.813 9.15484V7.81579H104.07V9.15484L104.638 9.4272L102.777 13.5351L101.029 9.51798L101.71 9.15484V7.81579H97.988V9.15484L98.9412 9.67685L102.55 17.802L102.504 21.8872L101.665 22.3411V23.6802H105.387V22.3411L104.615 21.9326Z" stroke="#670247" stroke-width="2" mask="url(#path-2-outside-1_126_643)"/>
<path d="M10.3892 26.865C10.3892 25.8011 9.49461 24.9188 8.36626 24.9188C7.23791 24.9188 6.34332 25.8011 6.34332 26.865C6.34332 27.929 7.23791 28.8112 8.36626 28.8112C9.49461 28.8112 10.3892 27.929 10.3892 26.865Z" fill="#FEBAB1" stroke="#670247" stroke-width="0.71301"/>
<circle r="2.15645" transform="matrix(-0.707107 -0.707107 -0.707107 0.707107 27.6337 10.0193)" fill="#FEBAB1" stroke="#670247" stroke-width="0.71301"/>
<path d="M30.1927 17.5007C30.1927 16.9151 29.7491 16.4756 29.2443 16.4756C28.7395 16.4756 28.296 16.9151 28.296 17.5007C28.296 18.0863 28.7395 18.5258 29.2443 18.5258C29.7491 18.5258 30.1927 18.0863 30.1927 17.5007Z" fill="#4C7585" stroke="#670247" stroke-width="0.71301"/>
<path d="M19.7538 30.0887C19.7538 28.1522 18.2503 26.6074 16.426 26.6074C14.6017 26.6074 13.0982 28.1522 13.0982 30.0887C13.0982 32.0252 14.6017 33.57 16.426 33.57C18.2503 33.57 19.7538 32.0252 19.7538 30.0887Z" fill="#D8E8ED" stroke="#670247" stroke-width="0.71301"/>
<circle r="3.44514" transform="matrix(-0.707107 -0.707107 -0.707107 0.707107 21.1593 5.37646)" fill="#D8E8ED" stroke="#670247" stroke-width="0.71301"/>
<path d="M6.09081 10.4389C6.09081 9.87279 5.63185 9.41383 5.0657 9.41383C4.49954 9.41383 4.04059 9.87279 4.04059 10.4389C4.04059 11.0051 4.49954 11.4641 5.0657 11.4641C5.63185 11.4641 6.09081 11.0051 6.09081 10.4389Z" fill="#0EE0A4" stroke="#670247" stroke-width="0.71301"/>
<circle r="0.996622" transform="matrix(-0.707107 -0.707107 -0.707107 0.707107 19.3755 29.3235)" fill="#0EE0A4" stroke="#670247" stroke-width="0.71301"/>
<path d="M6.39816 13.279C6.39816 11.7459 5.12259 10.4885 3.5309 10.4885C1.9392 10.4885 0.663634 11.7459 0.663634 13.279C0.663634 14.8121 1.9392 16.0695 3.5309 16.0695C5.12259 16.0695 6.39816 14.8121 6.39816 13.279Z" fill="#AEF9E3" stroke="#670247" stroke-width="0.71301"/>
<circle r="2.80079" transform="matrix(-0.707107 -0.707107 -0.707107 0.707107 21.927 28.1152)" fill="#AEF9E3" stroke="#670247" stroke-width="0.71301"/>
<path d="M28.8109 26.0206C28.8109 24.6301 27.7493 23.5371 26.4809 23.5371C25.2125 23.5371 24.1509 24.6301 24.1509 26.0206C24.1509 27.4111 25.2125 28.5041 26.4809 28.5041C27.7493 28.5041 28.8109 27.4111 28.8109 26.0206Z" fill="#003A51" stroke="#670247" stroke-width="0.71301"/>
<circle r="2.41418" transform="matrix(-0.707107 -0.707107 -0.707107 0.707107 12.6495 29.6694)" fill="#003A51" stroke="#670247" stroke-width="0.71301"/>
<path d="M30.1927 18.8055C30.1927 18.2817 29.7681 17.8571 29.2443 17.8571C28.7205 17.8571 28.296 18.2817 28.296 18.8055C28.296 19.3293 28.7205 19.7538 29.2443 19.7538C29.7681 19.7538 30.1927 19.3293 30.1927 18.8055Z" fill="#D8E8ED" stroke="#670247" stroke-width="0.71301"/>
<circle r="0.996622" transform="matrix(-0.707107 -0.707107 -0.707107 0.707107 24.4126 7.16016)" fill="#D8E8ED" stroke="#670247" stroke-width="0.71301"/>
<mask id="path-16-inside-2_126_643" fill="white">
<ellipse rx="0.690807" ry="0.690807" transform="matrix(1 0 0 -1 6.67762 7.75255)"/>
</mask>
<ellipse rx="0.690807" ry="0.690807" transform="matrix(1 0 0 -1 6.67762 7.75255)" fill="#E4EFF2"/>
<path d="M6.65542 7.75255C6.65542 7.7543 6.65592 7.75777 6.65746 7.76141C6.6588 7.76459 6.66043 7.76676 6.66192 7.76825C6.66341 7.76974 6.66559 7.77138 6.66876 7.77272C6.67241 7.77426 6.67587 7.77476 6.67762 7.77476V6.34874C7.45293 6.34874 8.08144 6.97725 8.08144 7.75255H6.65542ZM6.67762 7.77476C6.67937 7.77476 6.68284 7.77426 6.68648 7.77272C6.68966 7.77138 6.69183 7.76974 6.69332 7.76825C6.69481 7.76676 6.69645 7.76459 6.69779 7.76141C6.69933 7.75777 6.69983 7.7543 6.69983 7.75255H5.27381C5.27381 6.97725 5.90232 6.34874 6.67762 6.34874V7.77476ZM6.69983 7.75255C6.69983 7.7508 6.69933 7.74734 6.69779 7.74369C6.69645 7.74052 6.69481 7.73834 6.69332 7.73685C6.69183 7.73536 6.68966 7.73373 6.68648 7.73239C6.68284 7.73084 6.67937 7.73035 6.67762 7.73035V9.15637C5.90232 9.15637 5.27381 8.52786 5.27381 7.75255H6.69983ZM6.67762 7.73035C6.67587 7.73035 6.67241 7.73084 6.66876 7.73239C6.66559 7.73373 6.66341 7.73536 6.66192 7.73685C6.66043 7.73834 6.6588 7.74052 6.65746 7.74369C6.65592 7.74734 6.65542 7.7508 6.65542 7.75255H8.08144C8.08144 8.52786 7.45293 9.15637 6.67762 9.15637V7.73035Z" fill="#670247" mask="url(#path-16-inside-2_126_643)"/>
<path d="M8.70052 25.253C8.70052 23.9662 7.65736 22.923 6.37055 22.923C5.08375 22.923 4.04059 23.9662 4.04059 25.253C4.04059 26.5398 5.08375 27.5829 6.37055 27.5829C7.65736 27.5829 8.70052 26.5398 8.70052 25.253Z" fill="#FF7560" stroke="#670247" stroke-width="0.71301"/>
<circle r="2.28531" transform="matrix(-0.707107 -0.707107 -0.707107 0.707107 28.5017 12.7253)" fill="#FF7560" stroke="#670247" stroke-width="0.71301"/>
<path d="M3.94185 19.6499C3.94185 18.6598 3.13924 17.8572 2.14918 17.8572C1.15911 17.8572 0.356505 18.6598 0.356505 19.6499C0.356505 20.64 1.15911 21.4426 2.14918 21.4426C3.13924 21.4426 3.94185 20.64 3.94185 19.6499Z" fill="#FEBAB1" stroke="#670247" stroke-width="0.71301"/>
<circle r="1.76984" transform="matrix(-0.707107 -0.707107 -0.707107 0.707107 27.5212 22.8569)" fill="#FEBAB1" stroke="#670247" stroke-width="0.71301"/>
<circle r="0.996622" transform="matrix(-0.707107 -0.707107 -0.707107 0.707107 3.2568 21.9358)" fill="#FEBAB1" stroke="#670247" stroke-width="0.71301"/>
<circle r="2.02758" transform="matrix(-0.707107 -0.707107 -0.707107 0.707107 10.0879 5.36621)" fill="#FF7560" stroke="#670247" stroke-width="0.71301"/>
</svg>
