<svg width="32" height="32" viewBox="0 0 32 32" fill="none" xmlns="http://www.w3.org/2000/svg">
<path d="M8.5 12.6665L15.075 17.0498C15.3489 17.2326 15.6708 17.3301 16 17.3301C16.3292 17.3301 16.6511 17.2326 16.925 17.0498L23.5 12.6665M10.1667 21.8332H21.8333C22.2754 21.8332 22.6993 21.6576 23.0118 21.345C23.3244 21.0325 23.5 20.6085 23.5 20.1665V11.8332C23.5 11.3911 23.3244 10.9672 23.0118 10.6547C22.6993 10.3421 22.2754 10.1665 21.8333 10.1665H10.1667C9.72464 10.1665 9.30072 10.3421 8.98816 10.6547C8.67559 10.9672 8.5 11.3911 8.5 11.8332V20.1665C8.5 20.6085 8.67559 21.0325 8.98816 21.345C9.30072 21.6576 9.72464 21.8332 10.1667 21.8332Z" stroke="#ECEBED" stroke-width="1.4" stroke-linecap="round" stroke-linejoin="round"/>
<rect x="0.5" y="0.5" width="31" height="31" rx="15.5" stroke="#727477"/>
</svg>
